<?xml version="1.0" encoding="utf-8"?>
<!-- Generator: Adobe Illustrator 26.5.0, SVG Export Plug-In . SVG Version: 6.00 Build 0)  -->
<svg version="1.1" id="Layer_1" xmlns="http://www.w3.org/2000/svg" xmlns:xlink="http://www.w3.org/1999/xlink" x="0px" y="0px"
	 viewBox="0 0 100 100" style="enable-background:new 0 0 100 100;" xml:space="preserve">
<style type="text/css">
	.st0{fill:#1B5A90;}
	.st1{fill:#57C9E9;}
</style>
<g>
	<path class="st0" d="M-66.63,58c-10.08-6.58-21.12-8.76-32.88-7.3c-8.84,1.09-16.78,4.43-23.64,10.39c2.8,0,5.61-0.01,8.41,0
		c1.88,0.01,3.3,1.21,3.44,2.85c0.14,1.64-1.07,3.11-2.78,3.31c-0.61,0.07-1.23,0.01-1.85,0.04c-1.77,0.1-3.07,1.38-3.08,3.02
		c-0.02,1.69,1.35,3.09,3.15,3.11c3.4,0.04,6.79,0.01,10.19,0.01c2.19,0,3.63,1.23,3.63,3.1c0,1.85-1.45,3.1-3.65,3.1
		c-9.31,0-18.63,0.03-27.94-0.04c-1.38-0.01-1.96,0.4-2.03,1.76c-0.08,1.43-0.29,2.84-0.46,4.35c-0.94,0-1.84,0-3.07,0
		c0.21-1.91,0.3-3.79,0.64-5.62c1.71-9.3,6.75-16.56,14.08-22.31c1.25-0.98,1.59-1.7,0.76-3.1c-0.86-1.45-1.48-3.05-2.21-4.58
		c-0.04-0.08-0.15-0.14-0.22-0.21c-0.1-0.02-0.21-0.07-0.29-0.04c-2.58,0.92-2.57,0.91-3.73-1.66c-0.55-1.22-1.12-2.42-1.69-3.64
		c-1.62-3.46-1.52-3.91,1.35-6.18c-2.19-2.22-2.66-3.83-1.63-5.61c0.88-1.52,2.69-2.29,4.37-1.85c1.86,0.49,2.82,2.05,2.9,4.84
		c0.4-0.11,0.76-0.2,1.13-0.31c1.47-0.42,2.86,0.03,3.56,1.4c1.24,2.43,2.38,4.9,3.47,7.4c0.13,0.29-0.22,0.97-0.54,1.24
		c-0.45,0.38-1.08,0.54-1.83,0.89c0.95,2.04,1.87,4.01,2.78,5.95c2.91-1.04,5.61-2.19,8.42-2.95c3.02-0.81,6.12-1.31,9.21-1.82
		c0.97-0.16,1.32-0.45,1.29-1.43c-0.06-2.15-0.02-4.3-0.02-6.55c-1.06-0.06-1.96-0.11-3.04-0.16c0-3.16-0.19-6.29,0.07-9.39
		c0.16-1.96,1.96-2.43,3.45-2.49c-0.11-1.35-0.41-2.65-0.23-3.87c0.11-0.74,0.86-1.51,1.52-2.03c1.34-1.05,3.28-0.88,4.57,0.22
		c1.56,1.33,1.76,3.02,0.59,5.57c0.51,0.1,1,0.18,1.47,0.3c1.33,0.33,2.3,1.18,2.36,2.53c0.12,3.02,0.04,6.04,0.04,9.16
		c-1.03,0.06-1.93,0.11-2.94,0.16c0,2.54,0,5.03,0,7.67c6.79,0.49,13.3,2.06,19.59,4.96c0.91-1.98,1.76-3.82,2.65-5.77
		c-0.92-0.5-1.72-0.92-2.71-1.46c1.32-2.82,2.52-5.64,3.97-8.34c0.64-1.2,1.93-1.65,3.36-1.19c0.38,0.12,0.76,0.24,1.15,0.36
		c0.34-3.29,1.3-4.64,3.46-4.96c1.68-0.25,3.31,0.65,4.03,2.22c0.83,1.81,0.23,3.52-1.93,5.27c0.39,0.26,0.75,0.49,1.11,0.73
		c1.26,0.86,1.81,2.08,1.23,3.48c-1.13,2.75-2.43,5.43-3.72,8.26c-1.01-0.38-1.89-0.71-2.9-1.09c-0.89,1.92-1.81,3.76-2.56,5.66
		c-0.13,0.34,0.27,1.12,0.65,1.4c4.79,3.61,8.8,7.9,11.67,13.19c2.36,4.36,3.73,9.01,4.03,13.97c0.02,0.41,0.02,0.82,0.01,1.23
		c0,0.15-0.07,0.29-0.13,0.53c-0.9,0-1.8,0-2.75,0c-0.28-2.01-0.58-4.02-0.83-6.05c-0.15-1.18-0.7-1.58-1.93-1.57
		c-7.56,0.06-15.13,0.03-22.69,0.01c-0.71,0-1.46-0.02-2.12-0.26c-1.34-0.49-2.14-2-1.92-3.36c0.22-1.36,1.42-2.44,2.9-2.55
		c0.61-0.05,1.24,0.01,1.85-0.04c1.66-0.13,2.91-1.44,2.94-3.02c0.03-1.64-1.26-3.06-2.99-3.12c-1.95-0.07-3.91,0-5.87-0.02
		c-2.38-0.02-3.5-1.28-3.5-3.87c0-2.61,1.1-3.84,3.5-3.85C-75.56,57.99-71.1,58-66.63,58z"/>
	<path class="st1" d="M-106.74,5.58c0-2.41,0.02-4.83-0.01-7.24c-0.02-1.08,0.41-1.72,1.45-2.05c1.91-0.6,3.8-1.27,5.7-1.89
		c2.27-0.74,4.64-0.91,6.8,0.07c3.5,1.58,6.72,1.12,10.07-0.41c3.3-1.5,3.78-1.09,3.78,2.57c0,3.49-0.08,6.99,0.05,10.48
		c0.07,1.76-0.46,2.81-2.04,3.69c-2.52,1.42-4.93,3.07-7.97,2.9c-1.47-0.08-2.96-0.33-4.36-0.76c-1.84-0.56-3.61-0.72-5.44-0.1
		c-1.85,0.62-3.71,1.22-5.57,1.81c-1.63,0.52-2.46-0.08-2.47-1.81C-106.77,10.41-106.75,7.99-106.74,5.58
		C-106.75,5.58-106.74,5.58-106.74,5.58z M-103.64,11.11c0.73-0.23,1.27-0.35,1.78-0.56c3.41-1.36,6.79-1.68,10.34-0.33
		c3.41,1.3,6.3-0.28,9.02-2.18c0.22-0.15,0.42-0.49,0.43-0.75c0.04-1.3,0.02-2.6,0.02-4.09c-1.03,0.38-1.79,0.66-2.55,0.94
		c-2.14,0.79-4.42,1.17-6.47,0.2c-4.01-1.91-7.79-1.12-11.6,0.42c-0.39,0.16-0.91,0.62-0.93,0.97
		C-103.7,7.46-103.64,9.19-103.64,11.11z"/>
	<path class="st1" d="M-74.32,11.63c0-2.26,0.07-4.52-0.03-6.78c-0.07-1.45,0.53-2.17,1.87-2.54c1.38-0.38,2.75-0.84,4.09-1.36
		c3.23-1.25,6.4-1.19,9.58,0.21c2.03,0.88,4.12,0.74,6.16-0.04c1.29-0.5,2.56-1.07,3.86-1.54c1.24-0.44,2.23,0.17,2.24,1.47
		c0.05,4.57,0.03,9.14-0.01,13.72c0,0.41-0.23,0.99-0.55,1.2c-2.66,1.72-5.21,3.83-8.58,3.84c-1.76,0.01-3.57-0.28-5.28-0.75
		c-1.85-0.5-3.61-0.67-5.44-0.05c-1.6,0.55-3.22,1.06-4.83,1.59c-2.43,0.8-3.11,0.32-3.11-2.19
		C-74.32,16.15-74.32,13.89-74.32,11.63z M-60.44,16.06c0-3.83-0.07-7.36,0.04-10.89c0.04-1.24-0.53-1.59-1.53-1.84
		c-2.05-0.5-3.94,0.04-5.86,0.69c-3.4,1.16-3.41,1.13-3.42,4.74c0,2.75,0,5.49,0,8.46C-67.6,16.21-64.29,14.64-60.44,16.06z"/>
	<path class="st1" d="M-139.17,11.74c0-2.36,0.03-4.73-0.01-7.09c-0.02-1.2,0.43-1.91,1.62-2.25c1.43-0.4,2.84-0.9,4.23-1.43
		c3.28-1.26,6.49-1.22,9.73,0.2c2.13,0.93,4.32,0.68,6.45-0.18c1.14-0.46,2.28-0.95,3.43-1.37c1.34-0.48,2.32,0.1,2.34,1.49
		c0.05,4.52,0.05,9.04,0,13.56c-0.01,0.49-0.32,1.21-0.7,1.42c-2.33,1.26-4.62,2.82-7.13,3.46c-1.95,0.5-4.27,0.05-6.32-0.43
		c-2.07-0.48-4.01-0.73-6.03,0c-1.74,0.62-3.5,1.18-5.27,1.72c-1.45,0.44-2.3-0.17-2.32-1.7C-139.2,16.67-139.17,14.2-139.17,11.74z
		 M-135.94,4.79c0,4.39,0,8.34,0,12.36c0.34-0.06,0.55-0.07,0.73-0.14c3.93-1.58,7.8-1.96,11.97-0.46c3,1.08,5.76-0.42,8.4-2.54
		C-121.93,10.92-128.8,7.91-135.94,4.79z"/>
	<path class="st1" d="M-105.04,56.53c0.99,0,1.9,0,2.9,0c0,0.96,0,1.86,0,2.9c-0.92,0-1.85,0-2.9,0
		C-105.04,58.52-105.04,57.62-105.04,56.53z"/>
	<path class="st1" d="M-100.43,65.63c0-0.99,0-1.89,0-2.9c0.95,0,1.85,0,2.89,0c0,0.92,0,1.85,0,2.9
		C-98.43,65.63-99.34,65.63-100.43,65.63z"/>
	<path class="st1" d="M-83.6,82.81c0,0.97,0,1.87,0,2.88c-0.94,0-1.84,0-2.88,0c0-0.9,0-1.84,0-2.88
		C-85.59,82.81-84.7,82.81-83.6,82.81z"/>
</g>
<g>
	<path class="st0" d="M13.7,52.27c-1.26-1.9-1.74-3.84-0.94-5.95c0.67-1.77,1.93-2.98,3.66-3.74c0.32-0.14,0.79-0.35,0.85-0.62
		c0.6-2.37,2.08-4.02,4.13-5.21c-1.82-4.18-1.4-6.93,1.33-8.91c2.41-1.74,5.58-1.6,7.82,0.36c2.36,2.06,2.67,5.09,0.85,8.43
		c0.92,0.76,1.85,1.52,2.78,2.28c0.89-0.73,1.83-1.49,2.77-2.25c-1.83-3.8-1.46-6.65,1.16-8.69c2.36-1.83,5.5-1.79,7.83,0.1
		c2.52,2.04,2.87,4.94,1.06,8.56c0.92,0.77,1.85,1.55,2.76,2.31c0.9-0.75,1.83-1.52,2.76-2.29c-1.83-3.85-1.45-6.62,1.2-8.68
		c2.38-1.85,5.61-1.78,7.91,0.18c2.43,2.07,2.75,5,0.93,8.49c0.93,0.77,1.86,1.53,2.78,2.28c0.91-0.74,1.84-1.5,2.78-2.27
		c-1.83-3.5-1.49-6.52,0.99-8.54c2.43-1.98,5.6-1.98,8-0.02c2.51,2.06,2.87,5.05,1.15,8.32c1.17,1.35,2.54,2.48,3.3,3.93
		c0.68,1.29,1.39,2.18,2.67,2.92c2.88,1.65,3.7,5.13,2.16,8.07c-0.16,0.3-0.32,0.6-0.48,0.89c0.68,0.54,1.37,1.02,1.98,1.58
		c1.53,1.42,2.31,3.21,2.33,5.29c0.03,2.41-0.06,4.81,0.03,7.22c0.05,1.28-0.33,2.2-1.57,2.57c-1.3,0.38-1.52,1.21-1.56,2.47
		c-0.06,1.83,0.2,3.03,2.25,3.72c2.38,0.8,4.5,2.26,6.02,4.39c1.48,2.09,1.47,4.43-0.03,6.5c-1.36,1.87-3.25,3.09-5.29,4.09
		c-4.73,2.33-9.79,3.57-14.94,4.51c-12.54,2.28-25.18,2.62-37.86,1.66c-7-0.53-13.95-1.52-20.71-3.47
		c-3.64-1.05-7.2-2.31-10.26-4.64c-1.8-1.37-3.27-3-3.22-5.5c0.05-2.44,1.46-4.09,3.29-5.34c1.63-1.11,3.43-1.97,5.2-2.85
		c0.55-0.28,0.88-0.52,0.8-1.16c-0.04-0.3-0.05-0.62-0.01-0.91c0.26-1.83-0.1-3.23-2.15-3.85c-0.42-0.13-0.85-1-0.87-1.53
		c-0.08-2.71-0.1-5.42-0.01-8.13C9.45,55.84,11.11,53.79,13.7,52.27z M87.19,77.44c0,1.19,0.02,2.21,0,3.23
		c-0.03,1.48-0.54,2-2.01,2c-2.82,0.01-5.65,0-8.47-0.01c-1.53-0.01-2.04-0.52-2.04-2.07c-0.01-3.32-0.01-6.64-0.01-9.96
		c0-0.89-0.78-1.73-1.55-1.68c-0.81,0.05-1.48,0.78-1.48,1.64c0,3.36,0.02,6.72,0,10.08c-0.01,1.47-0.55,1.99-2.02,1.99
		c-2.79,0.01-5.57,0.01-8.36,0.01c-1.66,0-2.16-0.51-2.16-2.2c0-3.28,0-6.57,0-9.85c0-0.91-0.78-1.82-1.55-1.63
		c-0.77,0.19-1.55,0.42-1.51,1.62c0.09,3.36,0.03,6.72,0.02,10.08c-0.01,1.47-0.54,1.98-2.02,1.98c-2.79,0-5.57,0-8.36,0
		c-1.65,0-2.14-0.47-2.15-2.08c-0.01-3.32-0.07-6.64,0.02-9.96c0.03-1.18-0.71-1.45-1.49-1.64c-0.77-0.18-1.58,0.73-1.58,1.62
		c0,3.28,0.01,6.57,0,9.85c0,1.74-0.5,2.22-2.26,2.22c-2.67,0-5.34,0.01-8.02,0c-1.78-0.01-2.26-0.47-2.26-2.22
		c-0.01-3.28,0.01-6.57,0-9.85c0-0.9-0.64-1.62-1.46-1.66c-0.78-0.04-1.57,0.79-1.57,1.66c0,3.36,0,6.72-0.01,10.08
		c-0.01,1.42-0.53,1.96-1.91,1.97c-2.9,0.01-5.8,0.02-8.7,0.01c-1.34,0-1.87-0.53-1.9-1.86c-0.02-1.06,0-2.12,0-3.58
		c-1.73,1.08-3.28,1.89-4.65,2.94c-2.06,1.58-2.02,3.32-0.05,5.04c0.46,0.4,0.93,0.83,1.48,1.06c3.01,1.27,5.97,2.74,9.09,3.65
		c9.14,2.66,18.58,3.44,28.05,3.67c9.82,0.24,19.6-0.38,29.27-2.26c4.27-0.83,8.5-1.88,12.43-3.77c1.53-0.73,3-1.68,4.29-2.78
		c1.52-1.3,1.48-2.6,0.12-4.06C91,79.2,89.19,78.32,87.19,77.44z M52.87,79.55c0-0.45,0-0.82,0-1.19c0-3.06,0.03-6.11-0.01-9.17
		c-0.01-1.06,0.38-1.75,1.35-2.14c0.42-0.17,0.88-0.33,1.22-0.62c0.28-0.23,0.57-0.63,0.58-0.95c0.05-2.06,0.08-4.13,0.01-6.19
		c-0.1-2.68-2.07-4.55-4.74-4.6c-0.95-0.02-1.91-0.02-2.86,0c-2.85,0.03-4.83,1.96-4.89,4.81c-0.04,1.64,0.08,3.29-0.04,4.92
		c-0.1,1.34,0.28,2.14,1.62,2.53c1.16,0.34,1.62,1.19,1.59,2.45c-0.07,3.02-0.02,6.03-0.02,9.05c0,0.36,0.04,0.73,0.06,1.11
		C48.82,79.55,50.79,79.55,52.87,79.55z M37.29,79.57c0-3.53,0.03-6.92-0.01-10.31c-0.01-1.1,0.4-1.82,1.41-2.22
		c0.35-0.14,0.76-0.26,1.01-0.52c0.33-0.33,0.72-0.78,0.74-1.19c0.08-1.94,0.06-3.89,0.03-5.84c-0.05-2.81-2.07-4.78-4.89-4.79
		c-0.88-0.01-1.75,0-2.63,0c-2.97,0-4.96,1.96-5,4.92c-0.02,1.53,0.11,3.06-0.04,4.58c-0.14,1.46,0.26,2.37,1.72,2.81
		c1.13,0.34,1.53,1.2,1.49,2.39c-0.07,2.06-0.02,4.12-0.02,6.18c0,1.32,0,2.64,0,4C33.21,79.57,35.18,79.57,37.29,79.57z
		 M68.45,79.57c0-3.57,0.02-7-0.01-10.43c-0.01-1.01,0.38-1.67,1.29-2.07c0.38-0.17,0.83-0.28,1.12-0.56
		c0.33-0.32,0.72-0.78,0.73-1.19c0.08-1.94,0.07-3.89,0.02-5.84c-0.06-2.83-2.07-4.77-4.9-4.79c-0.88-0.01-1.75,0-2.63,0
		c-3.03,0.02-4.98,1.99-4.99,5.04c-0.01,1.6,0.1,3.21-0.03,4.81c-0.11,1.28,0.33,1.98,1.52,2.36c1.32,0.41,1.76,1.34,1.71,2.73
		c-0.09,2.9-0.03,5.8-0.03,8.7c0,0.4,0,0.81,0,1.25C64.38,79.57,66.34,79.57,68.45,79.57z M15.51,79.52c2.15,0,4.14,0,6.2,0
		c0-3.54,0.02-6.97-0.01-10.41c-0.01-0.96,0.36-1.61,1.21-2c0.45-0.21,0.94-0.37,1.33-0.66c0.29-0.22,0.61-0.61,0.61-0.93
		c0.05-2.1,0.09-4.2,0-6.3c-0.1-2.63-2.14-4.51-4.8-4.54c-0.92-0.01-1.83,0-2.75,0c-2.95,0.03-4.87,1.9-4.93,4.87
		c-0.03,1.64,0.1,3.29-0.04,4.92c-0.12,1.34,0.36,2.05,1.58,2.44c1.21,0.39,1.65,1.24,1.62,2.54
		C15.46,72.79,15.51,76.11,15.51,79.52z M77.83,79.52c2.16,0,4.15,0,6.2,0c0-3.5,0.03-6.89-0.02-10.28
		c-0.02-1.11,0.4-1.81,1.41-2.21c0.39-0.15,0.8-0.31,1.11-0.57c0.28-0.23,0.61-0.61,0.61-0.93c0.05-2.1,0.09-4.2,0-6.29
		c-0.11-2.66-2.11-4.5-4.78-4.54c-0.95-0.01-1.91-0.01-2.86-0.01c-2.81,0.02-4.8,1.99-4.85,4.83c-0.03,1.64,0.08,3.29-0.03,4.92
		c-0.09,1.27,0.23,2.08,1.53,2.46c1.26,0.37,1.73,1.26,1.7,2.61C77.78,72.82,77.83,76.13,77.83,79.52z M47.87,42.41
		c-0.45-1.89-2.09-3.21-4.13-3.29c-1.18-0.04-2.36-0.05-3.54-0.01c-2,0.07-3.71,1.49-4.1,3.38c1.92,0.75,3.33,2.03,4.03,4.05
		c0.72,2.09,0.15,3.95-0.95,5.64c1,0.82,1.92,1.59,2.8,2.31c0.93-0.77,1.84-1.52,2.75-2.27C42.21,48.13,43.8,44.23,47.87,42.41z
		 M32.31,42.42c-0.5-1.88-2.09-3.21-4.03-3.3c-1.26-0.05-2.52-0.05-3.78,0.01c-1.98,0.1-3.6,1.49-3.98,3.35
		c1.93,0.75,3.34,2.05,4.04,4.06c0.73,2.1,0.1,3.95-0.94,5.65c0.99,0.82,1.92,1.58,2.79,2.3c0.93-0.76,1.83-1.51,2.74-2.26
		C26.53,48.05,28.44,44.07,32.31,42.42z M60.29,52.24c-2.56-4.12-0.85-8.04,3.16-9.85c-0.47-1.84-2.1-3.19-4.05-3.28
		c-1.22-0.05-2.44-0.05-3.66,0.01c-1.98,0.09-3.55,1.36-4.08,3.25c4.51,2.12,5.46,6.17,3.16,9.86c0.93,0.77,1.86,1.54,2.75,2.27
		C58.48,53.74,59.38,52.99,60.29,52.24z M67.18,42.47c2.02,0.78,3.42,2.08,4.11,4.11c0.7,2.08,0.14,3.95-0.96,5.61
		c1.02,0.84,1.92,1.58,2.8,2.31c0.91-0.74,1.84-1.51,2.78-2.27c-2.39-3.65-1.29-7.87,3.14-9.83c-0.57-1.96-2.16-3.22-4.18-3.28
		c-1.14-0.03-2.29-0.03-3.43,0C69.42,39.16,67.86,40.39,67.18,42.47z M65.24,51.51c1.78,0.04,3.18-1.27,3.2-3
		c0.02-1.69-1.4-3.18-3.06-3.21c-1.67-0.03-3.11,1.4-3.13,3.12C62.23,50.11,63.55,51.47,65.24,51.51z M26.43,35.93
		c1.72,0,3.04-1.3,3.06-3c0.02-1.72-1.38-3.19-3.05-3.2c-1.67-0.01-3.12,1.43-3.14,3.12C23.29,34.57,24.66,35.92,26.43,35.93z
		 M34.19,51.51c1.73,0,3.07-1.28,3.1-2.98c0.03-1.75-1.43-3.26-3.14-3.23c-1.61,0.03-3.02,1.46-3.05,3.1
		C31.06,50.13,32.42,51.51,34.19,51.51z M80.87,51.5c1.75,0.03,3.12-1.31,3.15-3.06c0.02-1.62-1.38-3.09-2.99-3.14
		c-1.68-0.05-3.17,1.36-3.19,3.05C77.81,50.15,79.08,51.47,80.87,51.5z M41.96,35.93c1.79-0.01,3.13-1.34,3.11-3.09
		c-0.02-1.71-1.44-3.13-3.13-3.12c-1.65,0.01-3.07,1.5-3.05,3.21C38.91,34.62,40.26,35.94,41.96,35.93z M73.08,35.93
		c1.78,0.02,3.15-1.3,3.15-3.05c0-1.69-1.45-3.16-3.11-3.15c-1.68,0.01-3.08,1.45-3.08,3.17C70.05,34.6,71.35,35.91,73.08,35.93z
		 M18.62,51.5c1.79-0.01,3.09-1.31,3.08-3.1c0-1.7-1.45-3.13-3.14-3.09c-1.62,0.03-3.04,1.47-3.04,3.09
		C15.51,50.15,16.87,51.51,18.62,51.5z M52.86,48.39c-0.01-1.69-1.48-3.13-3.15-3.09c-1.65,0.04-3.03,1.45-3.03,3.1
		c0,1.77,1.33,3.1,3.1,3.1C51.54,51.5,52.87,50.16,52.86,48.39z M57.62,35.93c1.75-0.02,3.08-1.4,3.04-3.17
		c-0.04-1.61-1.5-3.05-3.1-3.05c-1.68,0-3.11,1.47-3.09,3.16C54.49,34.64,55.85,35.96,57.62,35.93z"/>
	<path class="st0" d="M51.29,26.57c-1.03,0-1.97,0-2.97,0c-0.02-0.38-0.06-0.71-0.06-1.05c0-5.92,0.02-11.83-0.02-17.75
		c-0.01-1.09,0.31-1.82,1.36-2.24c0.67-0.26,1.32-0.6,1.94-0.96c2.93-1.7,5.86-1.73,8.8-0.07c1.78,1.01,3.59,0.69,5.28-0.09
		c1.8-0.83,2.94,0.14,2.86,2.06c-0.14,3.24-0.06,6.49-0.02,9.73c0.01,1.08-0.43,1.66-1.43,2.05c-3,1.16-5.89,1.32-8.79-0.38
		c-1.69-0.99-3.4-0.52-5.14,0.26c-1.42,0.64-1.98,1.45-1.85,3.01C51.41,22.92,51.29,24.72,51.29,26.57z M65.32,7.85
		c-2.31,0.69-4.46,0.6-6.34-0.57C56.3,5.62,54.03,6.66,51.72,8c-0.19,0.11-0.4,0.4-0.4,0.6c-0.03,2.27-0.02,4.53-0.02,7.08
		c3.43-2.25,6.61-1.69,9.79,0.05c1.16,0.64,2.46,0.42,3.66-0.06c0.23-0.09,0.53-0.4,0.54-0.61C65.33,12.71,65.32,10.36,65.32,7.85z"
		/>
	<path class="st1" d="M65.24,51.51c-1.69-0.04-3.01-1.4-2.99-3.09c0.02-1.72,1.46-3.15,3.13-3.12c1.66,0.03,3.08,1.52,3.06,3.21
		C68.42,50.24,67.03,51.55,65.24,51.51z"/>
	<path class="st1" d="M26.43,35.93c-1.77,0-3.14-1.35-3.12-3.08c0.02-1.69,1.47-3.13,3.14-3.12c1.67,0.01,3.06,1.48,3.05,3.2
		C29.47,34.63,28.15,35.93,26.43,35.93z"/>
	<path class="st1" d="M34.19,51.51c-1.76,0-3.13-1.37-3.09-3.11c0.03-1.64,1.44-3.07,3.05-3.1c1.71-0.03,3.17,1.48,3.14,3.23
		C37.26,50.22,35.92,51.51,34.19,51.51z"/>
	<path class="st1" d="M80.87,51.5c-1.79-0.04-3.06-1.35-3.04-3.15c0.02-1.69,1.5-3.11,3.19-3.05c1.62,0.05,3.02,1.52,2.99,3.14
		C84,50.2,82.62,51.54,80.87,51.5z"/>
	<path class="st1" d="M41.96,35.93c-1.7,0.01-3.05-1.31-3.07-3.01c-0.02-1.7,1.4-3.2,3.05-3.21c1.69-0.01,3.11,1.41,3.13,3.12
		C45.09,34.59,43.75,35.92,41.96,35.93z"/>
	<path class="st1" d="M73.08,35.93c-1.73-0.02-3.03-1.32-3.04-3.03c0-1.72,1.4-3.17,3.08-3.17c1.66-0.01,3.1,1.46,3.11,3.15
		C76.23,34.62,74.86,35.94,73.08,35.93z"/>
	<path class="st1" d="M18.62,51.5c-1.75,0.01-3.11-1.35-3.1-3.1c0-1.62,1.42-3.06,3.04-3.09c1.69-0.03,3.14,1.39,3.14,3.09
		C21.71,50.19,20.41,51.49,18.62,51.5z"/>
	<path class="st1" d="M52.86,48.39c0.01,1.77-1.32,3.11-3.09,3.11c-1.77,0-3.1-1.33-3.1-3.1c0-1.65,1.38-3.06,3.03-3.1
		C51.39,45.26,52.85,46.7,52.86,48.39z"/>
	<path class="st1" d="M57.62,35.93c-1.77,0.02-3.13-1.3-3.15-3.05c-0.02-1.69,1.41-3.16,3.09-3.16c1.6,0,3.06,1.43,3.1,3.05
		C60.69,34.53,59.37,35.91,57.62,35.93z"/>
	<path class="st1" d="M65.32,7.85c0,2.5,0.01,4.86-0.02,7.21c0,0.21-0.31,0.52-0.54,0.61c-1.21,0.48-2.5,0.69-3.66,0.06
		c-3.19-1.74-6.36-2.3-9.79-0.05c0-2.55-0.01-4.82,0.02-7.08c0-0.21,0.21-0.49,0.4-0.6c2.3-1.33,4.58-2.38,7.26-0.71
		C60.86,8.46,63.01,8.54,65.32,7.85z"/>
</g>
</svg>
