<?xml version="1.0" encoding="utf-8"?>
<!-- Generator: Adobe Illustrator 26.5.0, SVG Export Plug-In . SVG Version: 6.00 Build 0)  -->
<svg version="1.1" id="Layer_1" xmlns="http://www.w3.org/2000/svg" xmlns:xlink="http://www.w3.org/1999/xlink" x="0px" y="0px"
	 viewBox="0 0 100 100" style="enable-background:new 0 0 100 100;" xml:space="preserve">
<style type="text/css">
	.st0{fill:#57C9E9;}
	.st1{fill:#1B5A90;}
</style>
<path class="st0" d="M59.91,55.96l-6.04,5.5l-7.94-7.9l8.57-6.09l-1.58-2.87L75.2,21.14l8.27,5.17l2.01,3.26
	c0,0,1.44,3.26,0.38,4.21s6.13,10.24,5.94,17.23s-2.59,17.98-6.7,19.57c-4.12,1.59-5.65,0.88-7.18-0.63
	c-1.53-1.52-0.6-3.93-0.6-3.93s8.42-9.08,6.76-16.02s-3.1-9.33-3.1-9.33l-4.4-0.96l-10.85,12.1l-3.32,4.14
	C62.4,55.96,60.39,53.34,59.91,55.96z"/>
<g>
	<path class="st1" d="M157.41-44.32c-10.08-6.58-21.12-8.76-32.88-7.3c-8.84,1.09-16.78,4.43-23.64,10.39c2.8,0,5.61-0.01,8.41,0
		c1.88,0.01,3.3,1.21,3.44,2.85c0.14,1.64-1.07,3.11-2.78,3.31c-0.61,0.07-1.23,0.01-1.85,0.04c-1.77,0.1-3.07,1.38-3.08,3.02
		c-0.02,1.69,1.35,3.09,3.15,3.11c3.4,0.04,6.79,0.01,10.19,0.01c2.19,0,3.63,1.23,3.63,3.1c0,1.85-1.45,3.1-3.65,3.1
		c-9.31,0-18.63,0.03-27.94-0.04c-1.38-0.01-1.96,0.4-2.03,1.76c-0.08,1.43-0.29,2.84-0.46,4.35c-0.94,0-1.84,0-3.07,0
		c0.21-1.91,0.3-3.79,0.64-5.62c1.71-9.3,6.75-16.56,14.08-22.31c1.25-0.98,1.59-1.7,0.76-3.1c-0.86-1.45-1.48-3.05-2.21-4.58
		c-0.04-0.08-0.15-0.14-0.22-0.21c-0.1-0.02-0.21-0.07-0.29-0.04c-2.58,0.92-2.57,0.91-3.73-1.66c-0.55-1.22-1.12-2.42-1.69-3.64
		c-1.62-3.46-1.52-3.91,1.35-6.18c-2.19-2.22-2.66-3.83-1.63-5.61c0.88-1.52,2.69-2.29,4.37-1.85c1.86,0.49,2.82,2.05,2.9,4.84
		c0.4-0.11,0.76-0.2,1.13-0.31c1.47-0.42,2.86,0.03,3.56,1.4c1.24,2.43,2.38,4.9,3.47,7.4c0.13,0.29-0.22,0.97-0.54,1.24
		c-0.45,0.38-1.08,0.54-1.83,0.89c0.95,2.04,1.87,4.01,2.78,5.95c2.91-1.04,5.61-2.19,8.42-2.95c3.02-0.81,6.12-1.31,9.21-1.82
		c0.97-0.16,1.32-0.45,1.29-1.43c-0.06-2.15-0.02-4.3-0.02-6.55c-1.06-0.06-1.96-0.11-3.04-0.16c0-3.16-0.19-6.29,0.07-9.39
		c0.16-1.96,1.96-2.43,3.45-2.49c-0.11-1.35-0.41-2.65-0.23-3.87c0.11-0.74,0.86-1.51,1.52-2.03c1.34-1.05,3.28-0.88,4.57,0.22
		c1.56,1.33,1.76,3.02,0.59,5.57c0.51,0.1,1,0.18,1.47,0.3c1.33,0.33,2.3,1.18,2.36,2.53c0.12,3.02,0.04,6.04,0.04,9.16
		c-1.03,0.06-1.93,0.11-2.94,0.16c0,2.54,0,5.03,0,7.67c6.79,0.49,13.3,2.06,19.59,4.96c0.91-1.98,1.76-3.82,2.65-5.77
		c-0.92-0.5-1.72-0.92-2.71-1.46c1.32-2.82,2.52-5.64,3.97-8.34c0.64-1.2,1.93-1.65,3.36-1.19c0.38,0.12,0.76,0.24,1.15,0.36
		c0.34-3.29,1.3-4.64,3.46-4.96c1.68-0.25,3.31,0.65,4.03,2.22c0.83,1.81,0.23,3.52-1.93,5.27c0.39,0.26,0.75,0.49,1.11,0.73
		c1.26,0.86,1.81,2.08,1.23,3.48c-1.13,2.75-2.43,5.43-3.72,8.26c-1.01-0.38-1.89-0.71-2.9-1.09c-0.89,1.92-1.81,3.76-2.56,5.66
		c-0.13,0.34,0.27,1.12,0.65,1.4c4.79,3.61,8.8,7.9,11.67,13.19c2.36,4.36,3.73,9.01,4.03,13.97c0.02,0.41,0.02,0.82,0.01,1.23
		c0,0.15-0.07,0.29-0.13,0.53c-0.9,0-1.8,0-2.75,0c-0.28-2.01-0.58-4.02-0.83-6.05c-0.15-1.18-0.7-1.58-1.93-1.57
		c-7.56,0.06-15.13,0.03-22.69,0.01c-0.71,0-1.46-0.02-2.12-0.26c-1.34-0.49-2.14-2-1.92-3.36c0.22-1.36,1.42-2.44,2.9-2.55
		c0.61-0.05,1.24,0.01,1.85-0.04c1.66-0.13,2.91-1.44,2.94-3.02c0.03-1.64-1.26-3.06-2.99-3.12c-1.95-0.07-3.91,0-5.87-0.02
		c-2.38-0.02-3.5-1.28-3.5-3.87c0-2.61,1.1-3.84,3.5-3.85C148.48-44.33,152.95-44.32,157.41-44.32z"/>
	<path class="st0" d="M117.3-96.74c0-2.41,0.02-4.83-0.01-7.24c-0.02-1.08,0.41-1.72,1.45-2.05c1.91-0.6,3.8-1.27,5.7-1.89
		c2.27-0.74,4.64-0.91,6.8,0.07c3.5,1.58,6.72,1.12,10.07-0.41c3.3-1.5,3.78-1.09,3.78,2.57c0,3.49-0.08,6.99,0.05,10.48
		c0.07,1.76-0.46,2.81-2.04,3.69c-2.52,1.42-4.93,3.07-7.97,2.9c-1.47-0.08-2.96-0.33-4.36-0.76c-1.84-0.56-3.61-0.72-5.44-0.1
		c-1.85,0.62-3.71,1.22-5.57,1.81c-1.63,0.52-2.46-0.08-2.47-1.81C117.28-91.91,117.29-94.33,117.3-96.74
		C117.3-96.74,117.3-96.74,117.3-96.74z M120.4-91.21c0.73-0.23,1.27-0.35,1.78-0.56c3.41-1.36,6.79-1.68,10.34-0.33
		c3.41,1.3,6.3-0.28,9.02-2.18c0.22-0.15,0.42-0.49,0.43-0.75c0.04-1.3,0.02-2.6,0.02-4.09c-1.03,0.38-1.79,0.66-2.55,0.94
		c-2.14,0.79-4.42,1.17-6.47,0.2c-4.01-1.91-7.79-1.12-11.6,0.42c-0.39,0.16-0.91,0.62-0.93,0.97
		C120.35-94.86,120.4-93.13,120.4-91.21z"/>
	<path class="st0" d="M149.72-90.69c0-2.26,0.07-4.52-0.03-6.78c-0.07-1.45,0.53-2.17,1.87-2.54c1.38-0.38,2.75-0.84,4.09-1.36
		c3.23-1.25,6.4-1.19,9.58,0.21c2.03,0.88,4.12,0.74,6.16-0.04c1.29-0.5,2.56-1.07,3.86-1.54c1.24-0.44,2.23,0.17,2.24,1.47
		c0.05,4.57,0.03,9.14-0.01,13.72c0,0.41-0.23,0.99-0.55,1.2c-2.66,1.72-5.21,3.83-8.58,3.84c-1.76,0.01-3.57-0.28-5.28-0.75
		c-1.85-0.5-3.61-0.67-5.44-0.05c-1.6,0.55-3.22,1.06-4.83,1.59c-2.43,0.8-3.11,0.32-3.11-2.19
		C149.72-86.17,149.72-88.43,149.72-90.69z M163.6-86.26c0-3.83-0.07-7.36,0.04-10.89c0.04-1.24-0.53-1.59-1.53-1.84
		c-2.05-0.5-3.94,0.04-5.86,0.69c-3.4,1.16-3.41,1.13-3.42,4.74c0,2.75,0,5.49,0,8.46C156.44-86.11,159.76-87.68,163.6-86.26z"/>
	<path class="st0" d="M84.87-90.58c0-2.36,0.03-4.73-0.01-7.09c-0.02-1.2,0.43-1.91,1.62-2.25c1.43-0.4,2.84-0.9,4.23-1.43
		c3.28-1.26,6.49-1.22,9.73,0.2c2.13,0.93,4.32,0.68,6.45-0.18c1.14-0.46,2.28-0.95,3.43-1.37c1.34-0.48,2.32,0.1,2.34,1.49
		c0.05,4.52,0.05,9.04,0,13.56c-0.01,0.49-0.32,1.21-0.7,1.42c-2.33,1.26-4.62,2.82-7.13,3.46c-1.95,0.5-4.27,0.05-6.32-0.43
		c-2.07-0.48-4.01-0.73-6.03,0c-1.74,0.62-3.5,1.18-5.27,1.72c-1.45,0.44-2.3-0.17-2.32-1.7C84.85-85.65,84.87-88.12,84.87-90.58z
		 M88.1-97.53c0,4.39,0,8.34,0,12.36c0.34-0.06,0.55-0.07,0.73-0.14c3.93-1.58,7.8-1.96,11.97-0.46c3,1.08,5.76-0.42,8.4-2.54
		C102.11-91.4,95.25-94.4,88.1-97.53z"/>
	<path class="st0" d="M119-45.79c0.99,0,1.9,0,2.9,0c0,0.96,0,1.86,0,2.9c-0.92,0-1.85,0-2.9,0C119-43.8,119-44.7,119-45.79z"/>
	<path class="st0" d="M123.61-36.68c0-0.99,0-1.89,0-2.9c0.95,0,1.85,0,2.89,0c0,0.92,0,1.85,0,2.9
		C125.61-36.68,124.71-36.68,123.61-36.68z"/>
	<path class="st0" d="M140.45-19.51c0,0.97,0,1.87,0,2.88c-0.94,0-1.84,0-2.88,0c0-0.9,0-1.84,0-2.88
		C138.45-19.51,139.35-19.51,140.45-19.51z"/>
</g>
<g>
	<g>
		<path class="st1" d="M73.99,75.53c-0.46,0-0.91,0.19-1.23,0.51c-0.32,0.32-0.51,0.77-0.51,1.23c0,0.46,0.19,0.91,0.51,1.23
			c0.32,0.32,0.77,0.51,1.23,0.51c0.46,0,0.91-0.19,1.23-0.51c0.32-0.32,0.51-0.77,0.51-1.23c0-0.46-0.19-0.91-0.51-1.23
			C74.89,75.71,74.44,75.53,73.99,75.53z"/>
		<path class="st1" d="M94.21,52.68c0-7.06-2.75-13.69-7.74-18.68c0,0,0,0,0,0l0.85-0.85c0.67,0.33,1.41,0.5,2.14,0.5
			c1.24,0,2.49-0.47,3.43-1.42c1.89-1.89,1.89-4.97,0-6.86L82.11,14.57c-0.92-0.92-2.14-1.42-3.43-1.42s-2.52,0.51-3.43,1.42
			c-1.51,1.51-1.81,3.76-0.92,5.57l-6.38,6.38v-6.46c0,0,0,0,0,0c0-0.45-0.17-0.9-0.51-1.23L54.88,6.29
			c-0.33-0.33-0.78-0.51-1.23-0.51c0,0,0,0,0,0H9.78c-2.67,0-4.84,2.17-4.84,4.84v70.06c0,2.67,2.17,4.84,4.84,4.84h17.67
			c0.96,0,1.74-0.78,1.74-1.74s-0.78-1.74-1.74-1.74H9.78c-0.75,0-1.36-0.61-1.36-1.36V10.62c0-0.75,0.61-1.36,1.36-1.36H51.9v7.87
			c0,2.58,2.1,4.69,4.69,4.69h7.87v8.2L50.8,43.67c-0.68,0.68-0.68,1.78,0,2.47l0.71,0.71l-6.22,6.22
			c-0.33,0.33-0.51,0.77-0.51,1.23s0.18,0.91,0.51,1.23l6.64,6.64c0.16,0.16,0.34,0.28,0.53,0.36H39.98c-2.88,0-5.23,2.35-5.23,5.23
			s2.35,5.23,5.23,5.23H50.9c3.73,3.11,8.18,5.1,12.97,5.82v3.23H43.14c-0.96,0-1.74,0.78-1.74,1.74s0.78,1.74,1.74,1.74h15.42
			c-2.85,1.44-4.81,4.39-4.81,7.79c0,0.96,0.78,1.74,1.74,1.74h36.97c0.96,0,1.74-0.78,1.74-1.74c0-4.81-3.91-8.72-8.72-8.72H84.1
			v-8.02c0-0.97-0.14-1.91-0.4-2.8c0.97-0.74,1.9-1.55,2.77-2.41C91.47,66.37,94.21,59.74,94.21,52.68z M56.59,18.33
			c-0.66,0-1.2-0.54-1.2-1.2v-5.4l6.6,6.6H56.59z M77.71,17.04c0.26-0.26,0.6-0.4,0.96-0.4c0.36,0,0.71,0.14,0.97,0.4l10.79,10.79
			c0.53,0.53,0.53,1.4,0,1.93c-0.53,0.53-1.4,0.53-1.93,0l-0.13-0.13L77.84,19.1l-0.13-0.13C77.18,18.44,77.18,17.57,77.71,17.04z
			 M67.43,31.98L67.43,31.98l9.18-9.18l8.07,8.07L62.57,52.97l-0.71-0.71l-6.64-6.64l-0.71-0.71L67.43,31.98z M78.16,42.32
			c2.77,2.77,4.29,6.45,4.29,10.36s-1.52,7.59-4.29,10.36c-1.63,1.63-3.57,2.81-5.64,3.52c-0.73,0.11-1.43,0.29-2.1,0.55
			c-0.81,0.15-1.64,0.23-2.47,0.23V52.53L78.16,42.32C78.15,42.32,78.16,42.32,78.16,42.32z M49,54.3l4.98-4.98l4.17,4.17
			l-4.98,4.98L49,54.3z M54.41,62.17l6.22-6.22l0.71,0.71c0.34,0.34,0.79,0.51,1.23,0.51c0.45,0,0.89-0.17,1.23-0.51l0.65-0.65
			v10.94c-0.65-0.15-1.3-0.35-1.94-0.6c-0.62-2.2-2.64-3.82-5.04-3.82h-3.6C54.07,62.45,54.25,62.33,54.41,62.17z M38.24,67.76
			c0-0.96,0.78-1.74,1.74-1.74h17.5c0.96,0,1.74,0.78,1.74,1.74c0,0.96-0.78,1.74-1.74,1.74h-17.5
			C39.02,69.51,38.24,68.73,38.24,67.76z M57.48,72.99c2.1,0,3.92-1.25,4.75-3.04c1.09,0.35,2.2,0.6,3.32,0.74
			c0.06,0.02,0.12,0.04,0.18,0.06c-0.93,1.32-1.55,2.86-1.76,4.54c-2.4-0.4-4.69-1.18-6.82-2.3L57.48,72.99L57.48,72.99z
			 M90.43,91.57H57.55c0.72-2.03,2.66-3.49,4.93-3.49H85.5C87.77,88.08,89.71,89.54,90.43,91.57z M67.36,84.59v-8.02
			c0-2.73,1.65-5.07,4.01-6.09c0.66-0.13,1.3-0.3,1.94-0.51c0.22-0.02,0.45-0.03,0.67-0.03c3.65,0,6.63,2.97,6.63,6.63v8.02H67.36z
			 M82.13,70.58c-0.98-1.33-2.28-2.41-3.79-3.14c0.8-0.58,1.57-1.22,2.28-1.94c3.43-3.43,5.31-7.98,5.31-12.83s-1.89-9.4-5.31-12.83
			c0,0,0,0,0,0l3.39-3.39c0,0,0,0,0,0c8.94,8.94,8.94,23.49,0,32.43C83.41,69.49,82.78,70.06,82.13,70.58z"/>
		<g>
			<path class="st0" d="M19.59,30.19h33.7c0.96,0,1.74-0.78,1.74-1.74c0-0.96-0.78-1.74-1.74-1.74h-33.7
				c-0.96,0-1.74,0.78-1.74,1.74C17.84,29.41,18.62,30.19,19.59,30.19z"/>
		</g>
		<g>
			<path class="st0" d="M19.59,38.56h30.76c0.96,0,1.74-0.78,1.74-1.74s-0.78-1.74-1.74-1.74H19.59c-0.96,0-1.74,0.78-1.74,1.74
				S18.62,38.56,19.59,38.56z"/>
		</g>
		<g>
			<path class="st0" d="M19.59,46.93h25.98c0.96,0,1.74-0.78,1.74-1.74c0-0.96-0.78-1.74-1.74-1.74H19.59
				c-0.96,0-1.74,0.78-1.74,1.74C17.84,46.15,18.62,46.93,19.59,46.93z"/>
		</g>
		<g>
			<path class="st0" d="M19.59,55.3h16.92c0.96,0,1.74-0.78,1.74-1.74c0-0.96-0.78-1.74-1.74-1.74H19.59
				c-0.96,0-1.74,0.78-1.74,1.74C17.84,54.52,18.62,55.3,19.59,55.3z"/>
		</g>
		<g>
			<path class="st0" d="M29.96,60.18H19.59c-0.96,0-1.74,0.78-1.74,1.74c0,0.96,0.78,1.74,1.74,1.74h10.37
				c0.96,0,1.74-0.78,1.74-1.74C31.7,60.96,30.92,60.18,29.96,60.18z"/>
		</g>
		<path class="st1" d="M35.29,82.15c-0.46,0-0.91,0.19-1.23,0.51c-0.32,0.32-0.51,0.77-0.51,1.23c0,0.46,0.19,0.91,0.51,1.23
			c0.32,0.32,0.77,0.51,1.23,0.51c0.46,0,0.91-0.19,1.23-0.51c0.33-0.32,0.51-0.77,0.51-1.23c0-0.46-0.18-0.91-0.51-1.23
			C36.2,82.34,35.75,82.15,35.29,82.15z"/>
	</g>
</g>
</svg>
