<svg id="Layer_1" data-name="Layer 1" xmlns="http://www.w3.org/2000/svg" xmlns:xlink="http://www.w3.org/1999/xlink" viewBox="0 0 1080 1080"><defs><style>.cls-1,.cls-21,.cls-22,.cls-4{fill:#fff;}.cls-2{fill:#d94047;}.cls-2,.cls-26{stroke:#960000;}.cls-2,.cls-24,.cls-25,.cls-26,.cls-5,.cls-6{stroke-miterlimit:10;}.cls-3{fill:#064271;}.cls-4{font-size:53px;}.cls-12,.cls-15,.cls-18,.cls-4,.cls-9{font-family:Poppins-Bold, Poppins;font-weight:700;}.cls-24,.cls-25,.cls-5,.cls-6{fill:none;}.cls-5,.cls-6{stroke:#085483;}.cls-5{stroke-width:6px;}.cls-6{stroke-width:4px;}.cls-10,.cls-11,.cls-12,.cls-13,.cls-14,.cls-15,.cls-16,.cls-17,.cls-18,.cls-19,.cls-7,.cls-8,.cls-9{fill:#085483;}.cls-10,.cls-8,.cls-9{font-size:41.06px;}.cls-11,.cls-14,.cls-17,.cls-8{font-family:Poppins-Black, Poppins;font-weight:800;}.cls-10,.cls-13,.cls-16,.cls-19{font-family:Poppins-SemiBold, Poppins;font-weight:600;}.cls-11,.cls-12,.cls-13{font-size:41.06px;}.cls-14,.cls-15,.cls-16{font-size:41.06px;}.cls-17,.cls-18,.cls-19{font-size:41.06px;}.cls-20{clip-path:url(#clip-path);}.cls-21{opacity:0.3;}.cls-22{opacity:0.1;}.cls-23{clip-path:url(#clip-path-3);}.cls-24{stroke:#fff;stroke-width:0.48px;}.cls-25{stroke:#064271;stroke-width:25px;}.cls-26,.cls-27{fill:#f7a4ab;}</style><clipPath id="clip-path"><path class="cls-1" d="M522.08,126.83l-.19-.35c-2-3.81-3.66-8-3.59-12.39,0-2,.56-4.23,2.39-5.37s3.88-.93,5.77-.72,3.77.7,5.67.93a5.48,5.48,0,0,0,2.64,0,7.29,7.29,0,0,0,3.39-3.42,21.55,21.55,0,0,0,.66-4c.21-2.1,1.09-4.81,0-6.78-.95-1.65-3.36.21-4.34,1-6.88,5.2-18.33,3-22-.28-2-1.78-2.46-.16-2.34,1.75a40.4,40.4,0,0,0,.93,7.64c.49,1.88,1.41,6.5-1.07,7.45-2.2.85-4,1.15-6.33,0s-2.39-3.88-2-6.26c.42-2.74.89-5.49,1.53-8.19.8-3.36.86-7.56,2.87-10.51,1.79-2.62,4.9-2.34,7.48-1,5.18,2.64,10.14,8.44,16.34,5.26,2-1,3.72-2.79,5.61-4.06,2.05-1.38,5.66-3.68,7.51-.76,1.23,1.93,1.5,4.53,1.81,6.75a56.42,56.42,0,0,1,.48,7.9c0,2.29,0,4.61-.17,6.9-.12,1.92-.32,4.3-1.76,5.74a10.28,10.28,0,0,1-7.91,2.6,12.72,12.72,0,0,1-4.18-.86c-1.37-.56-2.8-1.6-4.29-1.8-2.21-.31-2.82,3.08-3.07,4.6-.31,2,.27,4,.22,6C524,125.4,523.49,128,522.08,126.83Z"/></clipPath><clipPath id="clip-path-3"><path class="cls-1" d="M911.74,458.12c-1.79-3.13-15.79,0-19-1.12s-3.12-3-9.79-3c-5.21,0-6.54,1.87-9.79,3s-17.25-2-19,1.12.9,6.16,2.13,7.06l2.35-1.79s-3.47-2.24-1.57-3.48,13.67-.11,15.34.68,1,8.84,5.38,11.31c0,0,1.79,2.47-.56,6.39s2.24,9.4,2.24,9.4h7s4.59-5.48,2.24-9.4-.56-6.11-.56-6.11c4.37-2.46,3.69-10.67,5.37-11.45s13.44-2,15.35-.74-1.57,3.43-1.57,3.43l2.35,1.78C910.84,464.3,913.53,461.26,911.74,458.12Z"/></clipPath></defs><rect class="cls-2" x="456.87" y="387.09" width="12.75" height="23.76" transform="translate(58.34 -59.09) rotate(7.79)"/><path class="cls-3" d="M853.85,767.07c27.84-2.47,60.87,6.37,86.71,16.41-15.18-1.41-30.14,2.77-44,8.78-20.21,8.76-34.05,19.25-42.21,40,1.72-2.07,3.44-4.17,5.27-6.14,13.59-14.65,34.93-20.75,54.41-21.49,40.56-1.55,72.59,24.06,100.77,50-22.89-13.91-45.84-20.34-71.62-10.8-16.7,6.17-28.27,19.37-41,31.12q-11.58,10.6-23.72,20.58-3.51,2.82-7.07,5.59t-7.16,5.48c-2.41,1.8-4.82,3.59-7.26,5.35s-4.88,3.5-7.35,5.22-4.94,3.42-7.43,5.1-5,3.33-7.52,5-5.06,3.24-7.61,4.83-5.11,3.16-7.69,4.71-5.17,3.07-7.77,4.57-5.22,3-7.85,4.44-5.27,2.89-7.92,4.3-5.32,2.8-8,4.16-5.36,2.71-8.06,4-5.41,2.61-8.14,3.89-5.45,2.52-8.2,3.74-5.5,2.43-8.26,3.6-5.54,2.33-8.33,3.46-5.58,2.24-8.38,3.32-5.62,2.14-8.44,3.17-5.65,2-8.49,3-5.69,1.95-8.54,2.88-5.72,1.85-8.6,2.73-5.75,1.75-8.63,2.58-5.78,1.65-8.69,2.44-5.8,1.54-8.72,2.28-5.83,1.44-8.76,2.13-5.85,1.34-8.79,2-5.88,1.24-8.83,1.83-5.9,1.14-8.86,1.67-5.92,1-8.88,1.52-5.94.94-8.91,1.37-6,.84-8.94,1.22c-21.48,2.58-42.92,5.09-64.58,5.45-104.52,1.76-211.75-23.5-301.94-76.87-16-9.47-31.76-19.49-46.41-31Q190,894.21,177.26,882.74c-11.75-10.69-31.34-34.58-47.33-37.17-23-3.72-46.91,10-64.7,22.84l0-.32c21-23.88,45.8-45.21,78.06-51.21,22-4.08,47.2-1.31,66.89,9.73,7.17,4,13.73,9.39,20.5,14.07-6.73-14.49-19.81-29.16-34.12-36.51-19.13-9.83-40.11-9.25-60.18-2.82,20.72-15.16,43.75-22.75,69.2-25.07,14.36-1.31,37.79-2.34,50.51,4.53,5.82,3.14,10.83,8.06,15.88,12.28,23.4,19.53,48.84,35.65,75.83,49.65q4.71,2.46,9.48,4.78c3.18,1.55,6.38,3.07,9.6,4.53s6.46,2.9,9.72,4.29,6.53,2.72,9.82,4,6.6,2.55,9.93,3.77,6.66,2.39,10,3.51,6.72,2.22,10.1,3.26,6.78,2,10.19,3,6.83,1.87,10.26,2.73,6.87,1.69,10.33,2.46,6.91,1.51,10.39,2.2,7,1.33,10.44,1.92,7,1.15,10.48,1.66,7,1,10.53,1.38,7,.79,10.56,1.11,7,.6,10.59.84,7.06.42,10.6.56,7.07.24,10.61.29,7.08.05,10.62,0,7.08-.13,10.61-.26,7.08-.31,10.61-.54,7.06-.49,10.58-.81,7-.67,10.57-1.08,7-.86,10.53-1.35,7-1,10.49-1.63,7-1.22,10.45-1.9,6.93-1.4,10.39-2.17,6.9-1.58,10.33-2.44,6.86-1.75,10.27-2.7,6.81-1.93,10.2-3,6.75-2.1,10.11-3.23,6.7-2.28,10-3.49c24.62-8.94,49.47-21,72.19-34.07q10.65-6,20.79-12.89T789.83,803C814.83,782.63,818.31,770.27,853.85,767.07Z"/><text class="cls-4" transform="translate(252.61 876.85) rotate(31.48)">U</text><text class="cls-4" transform="matrix(0.89, 0.46, -0.46, 0.89, 285.82, 897.09)">n</text><text class="cls-4" transform="matrix(0.91, 0.42, -0.42, 0.91, 318.48, 913.93)">i</text><text class="cls-4" transform="translate(333.3 920.91) rotate(23.19)">t</text><text class="cls-4" transform="translate(354.07 929.93) rotate(20.4)">e</text><text class="cls-4" transform="translate(386.02 941.82) rotate(16.76)">d</text><text class="cls-4" transform="translate(421.56 952.21) rotate(14.17)"> </text><text class="cls-4" transform="matrix(0.98, 0.2, -0.2, 0.98, 433.5, 955.58)">G</text><text class="cls-4" transform="translate(474.88 963.66) rotate(6.81)">u</text><text class="cls-4" transform="matrix(1, 0.06, -0.06, 1, 511.74, 967.81)">t</text><text class="cls-4" transform="matrix(1, 0.02, -0.02, 1, 534, 969.01)"> </text><text class="cls-4" transform="translate(546.47 969.65) rotate(-1.74)">H</text><text class="cls-4" transform="matrix(0.99, -0.11, 0.11, 0.99, 586.98, 968.23)">e</text><text class="cls-4" transform="translate(621.12 964.52) rotate(-10.48)">a</text><text class="cls-4" transform="translate(657.7 957.43) rotate(-13.66)">l</text><text class="cls-4" transform="translate(673.77 953.57) rotate(-15.9)">t</text><text class="cls-4" transform="translate(695.81 947.46) rotate(-19.29)">h</text><text class="cls-4" transform="matrix(0.93, -0.37, 0.37, 0.93, 730.43, 935.01)"> </text><text class="cls-4" transform="translate(742.01 930.69) rotate(-24.82)">C</text><text class="cls-4" transform="translate(780.05 912.93) rotate(-28.81)">a</text><text class="cls-4" transform="matrix(0.85, -0.53, 0.53, 0.85, 812.49, 894.86)">r</text><text class="cls-4" transform="translate(832.69 882.49) rotate(-34.24)">e</text><path class="cls-5" d="M481.64,141.56S234.9,175.59,199,425"/><path class="cls-6" d="M862.5,425.34s-35.43-246.54-285.09-281"/><path class="cls-5" d="M578.79,806.18s246.69-34.31,282.34-283.8"/><path class="cls-5" d="M194.82,522.54S228.13,769.37,477.48,806"/><circle class="cls-7" cx="523.31" cy="106.47" r="39.11"/><circle class="cls-7" cx="180.15" cy="474.19" r="39.11"/><circle class="cls-7" cx="531.52" cy="819.4" r="39.11"/><circle class="cls-7" cx="881.15" cy="469.51" r="39.11"/><text class="cls-8" transform="matrix(0.99, 0.16, -0.16, 0.99, 577.9, 124.2)">G</text><text class="cls-8" transform="matrix(0.97, 0.25, -0.25, 0.97, 607.77, 129.13)">U</text><text class="cls-8" transform="translate(635.85 136.33) rotate(18.75)">T</text><text class="cls-9" transform="matrix(0.93, 0.37, -0.37, 0.93, 659.41, 144.53)"> </text><text class="cls-10" transform="translate(667.28 147.32) rotate(24.67)">H</text><text class="cls-10" transform="matrix(0.87, 0.49, -0.49, 0.87, 693.51, 159.44)">e</text><text class="cls-10" transform="matrix(0.83, 0.55, -0.55, 0.83, 715.21, 171.48)">a</text><text class="cls-10" transform="translate(737.97 186.82) rotate(36.74)">l</text><text class="cls-10" transform="translate(746.94 193.45) rotate(38.97)">t</text><text class="cls-10" transform="translate(759.13 203.07) rotate(42.48)">h</text><text class="cls-10" transform="matrix(0.7, 0.71, -0.71, 0.7, 778.71, 221.3)"> </text><text class="cls-10" transform="matrix(0.67, 0.75, -0.75, 0.67, 785.48, 227.89)">S</text><text class="cls-10" transform="translate(801.82 246.13) rotate(52.57)">p</text><text class="cls-10" transform="translate(818.4 267.84) rotate(56.88)">e</text><text class="cls-10" transform="translate(831.98 288.65) rotate(60.95)">c</text><text class="cls-10" transform="matrix(0.44, 0.9, -0.9, 0.44, 843.67, 310.02)">i</text><text class="cls-10" transform="translate(848.75 319.83) rotate(67.09)">a</text><text class="cls-10" transform="translate(859.23 345.2) rotate(70.3)">l</text><text class="cls-10" transform="matrix(0.31, 0.95, -0.95, 0.31, 863, 355.71)">i</text><text class="cls-10" transform="translate(866.53 366.22) rotate(74.94)">s</text><text class="cls-10" transform="translate(872.18 387.5) rotate(78.08)">t</text><text class="cls-11" transform="translate(881.3 532.45) rotate(99.6)">G</text><text class="cls-11" transform="matrix(-0.25, 0.97, -0.97, -0.25, 876.25, 562.3)">U</text><text class="cls-11" transform="translate(868.93 590.34) rotate(108.98)">T</text><text class="cls-12" transform="translate(860.64 613.87) rotate(111.76)"> </text><text class="cls-13" transform="matrix(-0.42, 0.91, -0.91, -0.42, 857.82, 621.73)">H</text><text class="cls-13" transform="matrix(-0.49, 0.87, -0.87, -0.49, 845.6, 647.92)">e</text><text class="cls-13" transform="matrix(-0.56, 0.83, -0.83, -0.56, 833.47, 669.57)">a</text><text class="cls-13" transform="translate(818.04 692.27) rotate(126.96)">l</text><text class="cls-13" transform="translate(811.37 701.21) rotate(129.2)">t</text><text class="cls-13" transform="translate(801.72 713.33) rotate(132.7)">h</text><text class="cls-13" transform="translate(783.4 732.87) rotate(135.7)"> </text><text class="cls-13" transform="translate(776.77 739.61) rotate(138.52)">S</text><text class="cls-13" transform="translate(758.48 755.88) rotate(142.8)">p</text><text class="cls-13" transform="matrix(-0.84, 0.54, -0.54, -0.84, 736.7, 772.38)">e</text><text class="cls-13" transform="matrix(-0.88, 0.48, -0.48, -0.88, 715.84, 785.87)">c</text><text class="cls-13" transform="translate(694.42 797.48) rotate(154.11)">i</text><text class="cls-13" transform="translate(684.59 802.52) rotate(157.32)">a</text><text class="cls-13" transform="translate(659.18 812.9) rotate(160.52)">l</text><text class="cls-13" transform="translate(648.66 816.63) rotate(162.39)">i</text><text class="cls-13" transform="translate(638.12 820.12) rotate(165.16)">s</text><text class="cls-13" transform="matrix(-0.98, 0.2, -0.2, -0.98, 616.84, 825.67)">t</text><text class="cls-14" transform="translate(464.54 822.48) rotate(-167.44)">G</text><text class="cls-14" transform="matrix(-0.95, -0.3, 0.3, -0.95, 434.99, 815.9)">U</text><text class="cls-14" transform="matrix(-0.93, -0.37, 0.37, -0.93, 407.36, 807.15)">T</text><text class="cls-15" transform="matrix(-0.91, -0.42, 0.42, -0.91, 384.29, 797.65)"> </text><text class="cls-16" transform="translate(376.58 794.43) rotate(-152.14)">H</text><text class="cls-16" transform="translate(351.07 780.88) rotate(-147.65)">e</text><text class="cls-16" transform="translate(330.06 767.65) rotate(-143.29)">a</text><text class="cls-16" transform="translate(308.19 751.07) rotate(-140.08)">l</text><text class="cls-16" transform="matrix(-0.74, -0.67, 0.67, -0.74, 299.61, 743.95)">t</text><text class="cls-16" transform="translate(287.97 733.67) rotate(-134.34)">h</text><text class="cls-16" transform="translate(269.43 714.38) rotate(-131.35)"> </text><text class="cls-16" transform="translate(263.04 707.42) rotate(-128.52)">S</text><text class="cls-16" transform="translate(247.73 688.31) rotate(-124.24)">p</text><text class="cls-16" transform="translate(232.39 665.71) rotate(-119.93)">e</text><text class="cls-16" transform="translate(219.98 644.18) rotate(-115.87)">c</text><text class="cls-16" transform="translate(209.49 622.19) rotate(-112.93)">i</text><text class="cls-16" transform="translate(204.97 612.11) rotate(-109.73)">a</text><text class="cls-16" transform="matrix(-0.28, -0.96, 0.96, -0.28, 195.91, 586.21)">l</text><text class="cls-16" transform="matrix(-0.25, -0.97, 0.97, -0.25, 192.73, 575.5)">i</text><text class="cls-16" transform="matrix(-0.21, -0.98, 0.98, -0.21, 189.79, 564.81)">s</text><text class="cls-16" transform="matrix(-0.15, -0.99, 0.99, -0.15, 185.34, 543.25)">t</text><text class="cls-17" transform="matrix(0.2, -0.98, 0.98, 0.2, 182.67, 413.79)">G</text><text class="cls-17" transform="translate(188.61 384.11) rotate(-73.8)">U</text><text class="cls-17" transform="matrix(0.35, -0.94, 0.94, 0.35, 196.75, 356.29)">T</text><text class="cls-18" transform="translate(205.75 333.02) rotate(-66.53)"> </text><text class="cls-19" transform="translate(208.8 325.25) rotate(-63.39)">H</text><text class="cls-19" transform="translate(221.79 299.44) rotate(-58.9)">e</text><text class="cls-19" transform="translate(234.56 278.15) rotate(-54.54)">a</text><text class="cls-19" transform="matrix(0.62, -0.78, 0.78, 0.62, 250.66, 255.93)">l</text><text class="cls-19" transform="matrix(0.65, -0.76, 0.76, 0.65, 257.59, 247.19)">t</text><text class="cls-19" transform="translate(267.6 235.36) rotate(-45.6)">h</text><text class="cls-19" transform="translate(286.5 216.37) rotate(-42.59)"> </text><text class="cls-19" transform="translate(293.32 209.83) rotate(-39.77)">S</text><text class="cls-19" transform="matrix(0.81, -0.58, 0.58, 0.81, 312.09, 194.11)">p</text><text class="cls-19" transform="translate(334.35 178.28) rotate(-31.18)">e</text><text class="cls-19" transform="matrix(0.89, -0.46, 0.46, 0.89, 355.61, 165.41)">c</text><text class="cls-19" transform="translate(377.36 154.44) rotate(-24.18)">i</text><text class="cls-19" transform="matrix(0.93, -0.36, 0.36, 0.93, 387.34, 149.7)">a</text><text class="cls-19" transform="matrix(0.95, -0.31, 0.31, 0.95, 413.04, 140.08)">l</text><text class="cls-19" transform="translate(423.68 136.67) rotate(-15.9)">i</text><text class="cls-19" transform="matrix(0.97, -0.23, 0.23, 0.97, 434.31, 133.49)">s</text><text class="cls-19" transform="matrix(0.98, -0.17, 0.17, 0.98, 455.73, 128.58)">t</text><path class="cls-7" d="M578.89,155l0,0-7.38-5,0,0-9.46-6.41,28.72-13.95-2.27,31.86Z"/><path class="cls-7" d="M210.13,419.18l0,0-5.64,6.89,0,0-7.25,8.83L186,405l31.51,5.2Z"/><path class="cls-7" d="M475.63,794.92l0,0,7.12,5.35,0,0,9.12,6.9-29.42,12.42,3.95-31.7Z"/><path class="cls-7" d="M849.83,528.73l0,0,6-6.61,0,0,7.69-8.46,9.72,30.42L842,537.32Z"/><path class="cls-1" d="M522.08,126.83l-.19-.35c-2-3.81-3.66-8-3.59-12.39,0-2,.56-4.23,2.39-5.37s3.88-.93,5.77-.72,3.77.7,5.67.93a5.48,5.48,0,0,0,2.64,0,7.29,7.29,0,0,0,3.39-3.42,21.55,21.55,0,0,0,.66-4c.21-2.1,1.09-4.81,0-6.78-.95-1.65-3.36.21-4.34,1-6.88,5.2-18.33,3-22-.28-2-1.78-2.46-.16-2.34,1.75a40.4,40.4,0,0,0,.93,7.64c.49,1.88,1.41,6.5-1.07,7.45-2.2.85-4,1.15-6.33,0s-2.39-3.88-2-6.26c.42-2.74.89-5.49,1.53-8.19.8-3.36.86-7.56,2.87-10.51,1.79-2.62,4.9-2.34,7.48-1,5.18,2.64,10.14,8.44,16.34,5.26,2-1,3.72-2.79,5.61-4.06,2.05-1.38,5.66-3.68,7.51-.76,1.23,1.93,1.5,4.53,1.81,6.75a56.42,56.42,0,0,1,.48,7.9c0,2.29,0,4.61-.17,6.9-.12,1.92-.32,4.3-1.76,5.74a10.28,10.28,0,0,1-7.91,2.6,12.72,12.72,0,0,1-4.18-.86c-1.37-.56-2.8-1.6-4.29-1.8-2.21-.31-2.82,3.08-3.07,4.6-.31,2,.27,4,.22,6C524,125.4,523.49,128,522.08,126.83Z"/><g class="cls-20"><path class="cls-21" d="M513.31,107.05a4.48,4.48,0,0,1-6.25.53.22.22,0,0,0-.26,0,4.22,4.22,0,0,1-3.75,1.46,3.74,3.74,0,0,1-2.65-3.81c0-.07-.1-.09-.12,0-.41,1.2.29,2.3,1.06,3.2a3.41,3.41,0,0,0,3.82.81,5.23,5.23,0,0,0,1.6-1c.31-.25,2,.74,2.42.81a5,5,0,0,0,4.48-1.62C513.9,107.19,513.55,106.81,513.31,107.05Z"/><path class="cls-21" d="M514.43,103.62a6.22,6.22,0,0,0-3.55-1.57,5.92,5.92,0,0,0-1.92.15c-1.11.23-1.53,1-2.73.33s-1.86-1.08-3.19-.74a2.81,2.81,0,0,0-2.07,1.84.14.14,0,0,0,.26.08c.62-1.95,3.06-1.83,4.39-1,.4.26,1.15.86,1.69.75,1.09-.21,1.89-.85,3.09-.88a6.64,6.64,0,0,1,3.71,1.39C514.35,104.14,514.64,103.82,514.43,103.62Z"/><path class="cls-21" d="M511.77,99.11a3.75,3.75,0,0,0-3.2-2.33,4.14,4.14,0,0,0-1.36.06c-1.08.19-1.52-.59-2.13-1.19s-1.46-.53-2.28-.59c-.19,0-.18.25,0,.28a3.89,3.89,0,0,1,2.79,1.53,1.59,1.59,0,0,0,.77.51c.85.11,1.64-.17,2.48,0a3.28,3.28,0,0,1,2.43,1.9C511.37,99.59,511.85,99.4,511.77,99.11Z"/><path class="cls-21" d="M510.51,93.22c-.61-1-1.83-.81-1.57-2.46.41-2.63-.57-4.53-1.52-6.91-.13-.33-.63-.07-.49.26.49,1.12,1,2.23,1.4,3.39.47,1.44,0,2.38,0,3.78,0,.46-.06.69.33,1,1.15.9,2,1.57,2.19,3.13,0,.15.25.12.25,0A3.91,3.91,0,0,0,510.51,93.22Z"/><path class="cls-21" d="M518.31,83.73a.15.15,0,0,0-.29-.09c-.95,2.61-.82,5.44-2.28,7.91-.32.54-.66.86-.54,1.49a3.06,3.06,0,0,0,.48.71c.86,1.12.28,2.66-.53,3.58,0,0,0,.1.06.06a3.76,3.76,0,0,0,1.08-2.24c.08-1.15-1.1-2.09-.43-3.15C517.45,89.5,517.68,86.54,518.31,83.73Z"/><path class="cls-21" d="M523.31,88.19c-1.48,2-1.15,4.43-1.11,6.78,0,1.11-.56,2-.44,3.19a3.59,3.59,0,0,0,1.5,2.31c.08.07.18-.06.11-.14a4,4,0,0,1-1.23-3.07c0-.94.53-1.75.54-2.71,0-.8-.14-1.59-.11-2.4a9.48,9.48,0,0,1,1.08-3.74C523.76,88.18,523.46,88,523.31,88.19Z"/><path class="cls-21" d="M530.9,95.6c-.61-.86-1.88-1.37-2-2.5a12.43,12.43,0,0,0-.77-2.61c0-.14-.28-.13-.27,0,.06.76.52,1.35.58,2.14,0,.37-.11,1,.14,1.36.6.82,1.49,1.33,2.09,2.19a5.29,5.29,0,0,1,.77,4c-.06.21.23.36.34.16C532.63,98.92,531.77,96.87,530.9,95.6Z"/><path class="cls-21" d="M532.32,87.72c-.24-.23-.62.11-.38.35a14.06,14.06,0,0,1,4.15,7.84c0,.09.13.06.14,0C536.61,92.75,534.47,89.78,532.32,87.72Z"/><path class="cls-21" d="M544.45,84.06c-.78,2.19-.81,8-4.11,7.92-.51,0-.7.36-.87.76a7.86,7.86,0,0,0-.31,1.44,10.16,10.16,0,0,1-.9,1.92c0,.06,0,.14.11.08a5.27,5.27,0,0,0,1.3-2.22c.17-.63.17-1.32,1.11-1.43a2.22,2.22,0,0,0,1.25-.48c2.13-1.92,2.34-5.2,3-7.81A.31.31,0,0,0,544.45,84.06Z"/><path class="cls-21" d="M549.53,98.89c-2.18.52-3.93,0-6.06-.37a3.52,3.52,0,0,0-1.29.12,4.75,4.75,0,0,1-3.57-.19.1.1,0,0,0-.11.16c1.8,1.26,3.27.09,5.2.5s3.9,1.06,6,.34C550,99.33,549.9,98.8,549.53,98.89Z"/><path class="cls-21" d="M548.42,107.11c-2.16,1-4.08.25-6.31.06a6.17,6.17,0,0,1-2.73-.63c-.7-.38-1.32-.92-2-1.35a.2.2,0,0,0-.22.34c1.71,1.2,2.78,2.15,4.94,2.28s4.48,1.27,6.58-.22A.27.27,0,0,0,548.42,107.11Z"/><path class="cls-21" d="M544.16,118.15a12,12,0,0,1-5.48-5.62c-.41-.9-.25-1.54-1-2.2s-2.24-1.16-2.57-2.47a.08.08,0,0,0-.16,0,2.23,2.23,0,0,0,1,1.77c.51.4,1.07.76,1.54,1.21s.45,1.42.66,2c.92,2.4,3.31,5,5.83,5.73C544.21,118.61,544.39,118.27,544.16,118.15Z"/><path class="cls-21" d="M531.13,113c-.06-.9.31-1-.14-1.79a8.58,8.58,0,0,1-.64-7.1c.09-.23-.28-.4-.4-.18-1.06,1.92-.68,4.31,0,6.3a6.77,6.77,0,0,0,.59,1.21c.31.52.12,1,.15,1.54a6.19,6.19,0,0,0,.95,3.08c.05.07.17,0,.14,0A14.07,14.07,0,0,1,531.13,113Z"/><path class="cls-21" d="M528.44,116.41c-2.59-1.55-4.76-2.87-5.51-6-.12-.53-.6-.49-1-.68-1.21-.51-2.7-1-2.65-2.58a.09.09,0,0,0-.17,0c-.3,2.6,3.16,2.11,3.53,4.1.48,2.62,3.38,4.58,5.67,5.5C528.48,116.86,528.63,116.53,528.44,116.41Z"/><path class="cls-21" d="M527.58,119.65a7.8,7.8,0,0,1-3.68-.35c-.79-.26-1.48-.78-2.28-1a.94.94,0,0,0-.78.18,2.89,2.89,0,0,1-3.2,0s0,0,0,0c.53.86,2.25,1,3.09.51,1-.59,2.56.57,3.58.92a5.53,5.53,0,0,0,3.39.11A.21.21,0,0,0,527.58,119.65Z"/></g><path class="cls-1" d="M522.08,126.83l-.19-.35c-2-3.81-3.66-8-3.59-12.39,0-2,.56-4.23,2.39-5.37s3.88-.93,5.77-.72,3.77.7,5.67.93a5.48,5.48,0,0,0,2.64,0,7.29,7.29,0,0,0,3.39-3.42,21.55,21.55,0,0,0,.66-4c.21-2.1,1.09-4.81,0-6.78-.95-1.65-3.36.21-4.34,1-6.88,5.2-18.33,3-22-.28-2-1.78-2.46-.16-2.34,1.75a40.4,40.4,0,0,0,.93,7.64c.49,1.88,1.41,6.5-1.07,7.45-2.2.85-4,1.15-6.33,0s-2.39-3.88-2-6.26c.42-2.74.89-5.49,1.53-8.19.8-3.36.86-7.56,2.87-10.51,1.79-2.62,4.9-2.34,7.48-1,5.18,2.64,10.14,8.44,16.34,5.26,2-1,3.72-2.79,5.61-4.06,2.05-1.38,5.66-3.68,7.51-.76,1.23,1.93,1.5,4.53,1.81,6.75a56.42,56.42,0,0,1,.48,7.9c0,2.29,0,4.61-.17,6.9-.12,1.92-.32,4.3-1.76,5.74a10.28,10.28,0,0,1-7.91,2.6,12.72,12.72,0,0,1-4.18-.86c-1.37-.56-2.8-1.6-4.29-1.8-2.21-.31-2.82,3.08-3.07,4.6-.31,2,.27,4,.22,6C524,125.4,523.49,128,522.08,126.83Z"/><g class="cls-20"><path class="cls-21" d="M513.31,107.05a4.48,4.48,0,0,1-6.25.53.22.22,0,0,0-.26,0,4.22,4.22,0,0,1-3.75,1.46,3.74,3.74,0,0,1-2.65-3.81c0-.07-.1-.09-.12,0-.41,1.2.29,2.3,1.06,3.2a3.41,3.41,0,0,0,3.82.81,5.23,5.23,0,0,0,1.6-1c.31-.25,2,.74,2.42.81a5,5,0,0,0,4.48-1.62C513.9,107.19,513.55,106.81,513.31,107.05Z"/><path class="cls-21" d="M514.43,103.62a6.22,6.22,0,0,0-3.55-1.57,5.92,5.92,0,0,0-1.92.15c-1.11.23-1.53,1-2.73.33s-1.86-1.08-3.19-.74a2.81,2.81,0,0,0-2.07,1.84.14.14,0,0,0,.26.08c.62-1.95,3.06-1.83,4.39-1,.4.26,1.15.86,1.69.75,1.09-.21,1.89-.85,3.09-.88a6.64,6.64,0,0,1,3.71,1.39C514.35,104.14,514.64,103.82,514.43,103.62Z"/><path class="cls-21" d="M511.77,99.11a3.75,3.75,0,0,0-3.2-2.33,4.14,4.14,0,0,0-1.36.06c-1.08.19-1.52-.59-2.13-1.19s-1.46-.53-2.28-.59c-.19,0-.18.25,0,.28a3.89,3.89,0,0,1,2.79,1.53,1.59,1.59,0,0,0,.77.51c.85.11,1.64-.17,2.48,0a3.28,3.28,0,0,1,2.43,1.9C511.37,99.59,511.85,99.4,511.77,99.11Z"/><path class="cls-21" d="M510.51,93.22c-.61-1-1.83-.81-1.57-2.46.41-2.63-.57-4.53-1.52-6.91-.13-.33-.63-.07-.49.26.49,1.12,1,2.23,1.4,3.39.47,1.44,0,2.38,0,3.78,0,.46-.06.69.33,1,1.15.9,2,1.57,2.19,3.13,0,.15.25.12.25,0A3.91,3.91,0,0,0,510.51,93.22Z"/><path class="cls-21" d="M518.31,83.73a.15.15,0,0,0-.29-.09c-.95,2.61-.82,5.44-2.28,7.91-.32.54-.66.86-.54,1.49a3.06,3.06,0,0,0,.48.71c.86,1.12.28,2.66-.53,3.58,0,0,0,.1.06.06a3.76,3.76,0,0,0,1.08-2.24c.08-1.15-1.1-2.09-.43-3.15C517.45,89.5,517.68,86.54,518.31,83.73Z"/><path class="cls-21" d="M523.31,88.19c-1.48,2-1.15,4.43-1.11,6.78,0,1.11-.56,2-.44,3.19a3.59,3.59,0,0,0,1.5,2.31c.08.07.18-.06.11-.14a4,4,0,0,1-1.23-3.07c0-.94.53-1.75.54-2.71,0-.8-.14-1.59-.11-2.4a9.48,9.48,0,0,1,1.08-3.74C523.76,88.18,523.46,88,523.31,88.19Z"/><path class="cls-21" d="M530.9,95.6c-.61-.86-1.88-1.37-2-2.5a12.43,12.43,0,0,0-.77-2.61c0-.14-.28-.13-.27,0,.06.76.52,1.35.58,2.14,0,.37-.11,1,.14,1.36.6.82,1.49,1.33,2.09,2.19a5.29,5.29,0,0,1,.77,4c-.06.21.23.36.34.16C532.63,98.92,531.77,96.87,530.9,95.6Z"/><path class="cls-21" d="M532.32,87.72c-.24-.23-.62.11-.38.35a14.06,14.06,0,0,1,4.15,7.84c0,.09.13.06.14,0C536.61,92.75,534.47,89.78,532.32,87.72Z"/><path class="cls-21" d="M544.45,84.06c-.78,2.19-.81,8-4.11,7.92-.51,0-.7.36-.87.76a7.86,7.86,0,0,0-.31,1.44,10.16,10.16,0,0,1-.9,1.92c0,.06,0,.14.11.08a5.27,5.27,0,0,0,1.3-2.22c.17-.63.17-1.32,1.11-1.43a2.22,2.22,0,0,0,1.25-.48c2.13-1.92,2.34-5.2,3-7.81A.31.31,0,0,0,544.45,84.06Z"/><path class="cls-21" d="M549.53,98.89c-2.18.52-3.93,0-6.06-.37a3.52,3.52,0,0,0-1.29.12,4.75,4.75,0,0,1-3.57-.19.1.1,0,0,0-.11.16c1.8,1.26,3.27.09,5.2.5s3.9,1.06,6,.34C550,99.33,549.9,98.8,549.53,98.89Z"/><path class="cls-21" d="M548.42,107.11c-2.16,1-4.08.25-6.31.06a6.17,6.17,0,0,1-2.73-.63c-.7-.38-1.32-.92-2-1.35a.2.2,0,0,0-.22.34c1.71,1.2,2.78,2.15,4.94,2.28s4.48,1.27,6.58-.22A.27.27,0,0,0,548.42,107.11Z"/><path class="cls-21" d="M544.16,118.15a12,12,0,0,1-5.48-5.62c-.41-.9-.25-1.54-1-2.2s-2.24-1.16-2.57-2.47a.08.08,0,0,0-.16,0,2.23,2.23,0,0,0,1,1.77c.51.4,1.07.76,1.54,1.21s.45,1.42.66,2c.92,2.4,3.31,5,5.83,5.73C544.21,118.61,544.39,118.27,544.16,118.15Z"/><path class="cls-21" d="M531.13,113c-.06-.9.31-1-.14-1.79a8.58,8.58,0,0,1-.64-7.1c.09-.23-.28-.4-.4-.18-1.06,1.92-.68,4.31,0,6.3a6.77,6.77,0,0,0,.59,1.21c.31.52.12,1,.15,1.54a6.19,6.19,0,0,0,.95,3.08c.05.07.17,0,.14,0A14.07,14.07,0,0,1,531.13,113Z"/><path class="cls-21" d="M528.44,116.41c-2.59-1.55-4.76-2.87-5.51-6-.12-.53-.6-.49-1-.68-1.21-.51-2.7-1-2.65-2.58a.09.09,0,0,0-.17,0c-.3,2.6,3.16,2.11,3.53,4.1.48,2.62,3.38,4.58,5.67,5.5C528.48,116.86,528.63,116.53,528.44,116.41Z"/><path class="cls-21" d="M527.58,119.65a7.8,7.8,0,0,1-3.68-.35c-.79-.26-1.48-.78-2.28-1a.94.94,0,0,0-.78.18,2.89,2.89,0,0,1-3.2,0s0,0,0,0c.53.86,2.25,1,3.09.51,1-.59,2.56.57,3.58.92a5.53,5.53,0,0,0,3.39.11A.21.21,0,0,0,527.58,119.65Z"/></g><path class="cls-22" d="M544.63,92.67a12.8,12.8,0,0,0-.27,3.37,34.69,34.69,0,0,1,.22,5.58c-.17,1.62-.33,3.24-.52,4.85-.35,2.93-1.11,5.55-3.51,7.44a5.72,5.72,0,0,1-5.61,1c-2.05-.75-3.88-2.32-6.06-2.67a5.21,5.21,0,0,0-5.87,4.26c-.57,3.33.58,7.2-1,10.12a1.85,1.85,0,0,0,.1.18c1.41,1.21,1.95-1.43,2-2.31.05-2-.53-4-.22-6,.25-1.52.86-4.91,3.07-4.6,1.49.2,2.92,1.24,4.29,1.8a12.72,12.72,0,0,0,4.18.86,10.28,10.28,0,0,0,7.91-2.6c1.44-1.44,1.64-3.82,1.76-5.74.14-2.29.16-4.61.17-6.9a56.42,56.42,0,0,0-.48-7.9C544.7,93.21,544.66,92.94,544.63,92.67Z"/><path class="cls-1" d="M911.74,458.12c-1.79-3.13-15.79,0-19-1.12s-3.12-3-9.79-3c-5.21,0-6.54,1.87-9.79,3s-17.25-2-19,1.12.9,6.16,2.13,7.06l2.35-1.79s-3.47-2.24-1.57-3.48,13.67-.11,15.34.68,1,8.84,5.38,11.31c0,0,1.79,2.47-.56,6.39s2.24,9.4,2.24,9.4h7s4.59-5.48,2.24-9.4-.56-6.11-.56-6.11c4.37-2.46,3.69-10.67,5.37-11.45s13.44-2,15.35-.74-1.57,3.43-1.57,3.43l2.35,1.78C910.84,464.3,913.53,461.26,911.74,458.12Z"/><g class="cls-23"><path class="cls-21" d="M883.92,479.87l.63-.07c0-.21,0-.42,0-.63a12.8,12.8,0,0,1-8-.93c-.25-.12-.48.23-.23.37A12.67,12.67,0,0,0,883.92,479.87Z"/><path class="cls-21" d="M894.65,476.79c-2.58.51-5.49,1.48-8.41,2.08,0,.25,0,.49,0,.74a39.52,39.52,0,0,0,8.57-2A.44.44,0,0,0,894.65,476.79Z"/><path class="cls-21" d="M884.3,472.66a9.1,9.1,0,0,1,.33-1.55h-1c-3,0-6.64.32-9.58-.47a.37.37,0,0,0-.21.71c2.74,1,6.09,1.07,9,1.24Z"/><path class="cls-21" d="M893.05,469.89a29.17,29.17,0,0,1-6.46,1.13,14.29,14.29,0,0,0-.45,1.64,27,27,0,0,0,7.29-1.14C894.45,471.2,894.08,469.58,893.05,469.89Z"/><path class="cls-21" d="M886.61,466.05c.13-.43.26-.87.37-1.31a22.29,22.29,0,0,1-4.3.36,53.58,53.58,0,0,1-11.49-1.54.19.19,0,0,0-.11.36C876,465.58,881.43,466.68,886.61,466.05Z"/><path class="cls-21" d="M892.87,462.88a29.5,29.5,0,0,1-4,1.44c-.1.48-.21.95-.33,1.42a20,20,0,0,0,5-1.74C894.2,463.62,893.61,462.55,892.87,462.88Z"/><path class="cls-21" d="M887.05,459c-2.93,0-5.78.55-8.72.2-.3,0-.35.43-.08.52a20.82,20.82,0,0,0,8.92.5C887.88,460.09,887.74,459,887.05,459Z"/></g><path class="cls-22" d="M911.74,458.12c-1.79-3.13-15.79,0-19-1.12a16.91,16.91,0,0,1-3.29-1.75,33.07,33.07,0,0,1,0,3.55,27.41,27.41,0,0,1-2.1,10.31,12.84,12.84,0,0,0-1.4,6.57,35.35,35.35,0,0,1,.3,5.24,13.7,13.7,0,0,1-1.67,5.79h1.85s4.59-5,2.24-8.91-.56-5.86-.56-5.86c4.37-2.47,3.69-10.55,5.37-11.33s13.44-1.92,15.35-.69-1.57,3.47-1.57,3.47l2.35,1.79C910.84,464.28,913.53,461.26,911.74,458.12Z"/><path class="cls-1" d="M863.28,465.91a2.57,2.57,0,0,0,.41-1.34,2.71,2.71,0,0,0-.3-1.31l0-.06a2.59,2.59,0,0,0-2.22-1.38,2.66,2.66,0,0,0-.75.1,2.81,2.81,0,0,0-1.68-.66,2.68,2.68,0,0,0-1.3.31l-.55.39a2.58,2.58,0,0,0-.73,1.16l0,.07a2.87,2.87,0,0,0-.05.31,2,2,0,0,0-1.16,1.7,2,2,0,0,0,.24,1,1.92,1.92,0,0,0,.93.85.2.2,0,0,0,0,.07,2.1,2.1,0,0,0,2,2.14,2.14,2.14,0,0,0,1.33-.46,2.1,2.1,0,0,0,1.83,1.14,2.18,2.18,0,0,0,2.22-2.09,2.23,2.23,0,0,0-.55-1.49A2.89,2.89,0,0,0,863.28,465.91Z"/><path class="cls-1" d="M901.75,465.91a2.77,2.77,0,0,1-.41-1.34,2.72,2.72,0,0,1,.31-1.31l0-.06a2.58,2.58,0,0,1,2.22-1.38,2.66,2.66,0,0,1,.75.1,2.78,2.78,0,0,1,1.67-.66,2.72,2.72,0,0,1,1.31.31l.55.39a2.58,2.58,0,0,1,.73,1.16l0,.07c0,.1,0,.2,0,.31a2,2,0,0,1,1.16,1.7,2.13,2.13,0,0,1-.24,1,2,2,0,0,1-.93.85s0,.05,0,.07a2.1,2.1,0,0,1-2,2.14,2.09,2.09,0,0,0-3.17.68,2.15,2.15,0,0,1-1.66-3.58A2.5,2.5,0,0,1,901.75,465.91Z"/><path class="cls-1" d="M203,464.58a20.42,20.42,0,0,1-8.57-1.5l-1.05-.41c-5.43-2.16-10.13-4-15.74-2-5.24,1.86-8.19,6.82-10.55,10.81-.5.83-1,1.63-1.45,2.36-.93,1.43-4.23,2.71-9.82,3.83l-1.37.29,1.75,6.63,1-.2c5.56-1.11,11.6-2.79,14.22-6.81.52-.8,1.05-1.68,1.6-2.6,1.89-3.2,4.05-6.82,7-7.86s5.69-.14,10.92,1.94l1.06.42a27,27,0,0,0,11.83,1.93Zm-11.22,1.09a2.75,2.75,0,0,1-3.53,1.62c-3.39-1.25-5.87-1.79-8.54-.84-3.15,1.12-5.37,4.86-7.33,8.16l-.69,1.16a2.72,2.72,0,0,1-2.35,1.33,2.7,2.7,0,0,1-1.41-.4,2.73,2.73,0,0,1-.93-3.76l.67-1.13c2.31-3.89,5.19-8.74,10.2-10.52,4.67-1.66,8.79-.43,12.28.86A2.75,2.75,0,0,1,191.78,465.67Z"/><path class="cls-1" d="M177.85,465.58a2,2,0,1,0-2,2A2,2,0,0,0,177.85,465.58Z"/><path class="cls-1" d="M542.18,824.83c-4-3.24-11.24-1-15.68,1.63-1.85,1.11-3.38,1.88-4.8,1.9a13,13,0,0,0,22.63-2.69A3,3,0,0,1,542.18,824.83Z"/><path class="cls-1" d="M532.27,799.79a21,21,0,1,0,21,21A21,21,0,0,0,532.27,799.79Zm0,39.35a18.35,18.35,0,1,1,18.34-18.35A18.37,18.37,0,0,1,532.27,839.14Z"/><circle class="cls-24" cx="532.27" cy="820.79" r="13.06"/><circle class="cls-25" cx="530.64" cy="476.54" r="276.94"/><rect class="cls-1" x="492.41" y="173.67" width="78.22" height="53.2"/><path class="cls-26" d="M352,546.89c-13.58-14.44-13.6-31.25,0-45.11-8-8.21-11.85-18.15-7.7-28.65,3-7.57,3.14-14.24,1.29-21.91-1.51-6.23-1.4-13.15,4.52-18.41.6-.54.6-2,.4-2.92-6-28.13,22.89-48.35,52-40.92a24.88,24.88,0,0,0,8.35.52c16-1.59,30.09,1.68,41.31,13.11a10.45,10.45,0,0,0,7,2.43c12.41-.41,23.6,2.18,33.37,9.55,1.22.92,3.73.39,5.65.53l.48-1.83c-2.42-1.2-4.91-2.31-7.26-3.62-6.72-3.76-13.38-7.61-20.11-11.37-1.79-1-3.62-2.34-5.59-2.62-5.58-.79-7.81-4.05-7.15-8.58,1-6.77,1.79-13.8,4.45-20.08,5.78-13.67,18.8-17.72,33.36-18.91,2.88-.24,5.77-.37,8.63-.72,22.68-2.79,37.64-19.16,37.2-40.2-.09-4.85-3.91-6.3-7.23-8-13.33-6.79-22.94-16.69-28.85-29.42-2.37-5.12-4.33-10.82-4.48-16.3-.56-19.46-.28-39-.24-58.43,0-2.11.75-4.22.73-6.33,0-4.07,2.25-4.85,6.21-4.85,4.26,0,5.83,1.45,5.89,5.25.32,19,1.16,37.89,1.09,56.84,0,17.34,7.42,30.51,23.67,39.18,17.35,9.26,19.33,20.05,14.73,36.07-6.63,23.11-22.51,35.33-49.14,38.47A96.85,96.85,0,0,0,490.38,362a29.86,29.86,0,0,0-10.13,4.75c-9.6,7.39-9.54,12.6-.63,20.44,9.42,8.29,20.33,14.13,32.06,19.46s23.43,8.38,36,7c9.78-1.05,20-2.73,28.85-6.46C615.3,390.93,644.77,366,656.3,327c5.54-18.75,2.39-37.18-9.13-54.06-14.18-20.74-46.64-27.22-68.63-13.48a16.35,16.35,0,0,0-2.83,1.83c-14,13.57-36-2.33-36.32-15.59-.45-18.76.16-37.54.22-56.31,0-5.82,4.52-5.53,8.74-5.75,4.75-.25,5.16,2.76,5.19,6,.19,17,.25,34,.63,51a13.93,13.93,0,0,0,2.49,7.76c2.89,3.8,6.13,5,11.43,1.63,34.27-21.79,82.25-8.38,97.58,27.29,11.26,26.22,10,52-5.78,76.57-4.76,7.45-9.34,15.12-15.08,21.91s-12.59,12.33-19.23,18.67c2.34,3.57,5.22,1.29,7.88-.08,15.45-8,37.14-6.37,50.52,3.94,15.7,12.09,23.37,33.55,11.15,52.51,12.06,13.14,11.83,27-.72,42.35,14,16.41,9.66,33.06.51,42.41,2.64,6,5.82,11.51,7.41,17.34,3.12,11.45-1.45,21.12-9.65,29.76a9.35,9.35,0,0,0-2.57,6.77c1.81,14.17-7.6,29.22-22,34.74A96.85,96.85,0,0,0,657,629.59c-7,3.75-14.57,4-22.35,3.76-1.85-.07-4.45.1-5.49,1.17-11.07,11.3-26.41,14.73-41.14,8.37-4.28-1.84-7.28-2.39-11.8.08-7,3.83-15.11,3.61-23,2.08-.9-.18-1.84-.18-3.44-.33,0,4.48,0,8.69,0,12.91,0,14.52.13,29,.16,43.57,0,8.48-.92,9.33-11.81,9.95-.59-5.66-1.59-11.36-1.71-17.08-.31-15.05-.53-30.12-.13-45.17a26.83,26.83,0,0,1,3.94-13c4.09-6.52,6.32-6.61,14.09-4.24s15.22,1.28,21.46-4c5.72-4.86,7.59-4.91,12.86-.07,10,9.21,25.87,7.16,32.61-4.23,3.82-6.44,5.14-7.06,12.2-3.76,8.1,3.78,14.49-.07,21.1-3.28,3.55-1.72,7.05-3.55,10.48-5.46,7.6-4.22,12.47-9.93,11.62-18.62-.27-2.82-.61-5.63-1-8.44-.55-4,.56-6.64,4.79-9.07,10.32-5.92,11-21.23,1.94-29.18a23.47,23.47,0,0,1-5.51-6.6c-1.84-3.66-1.63-6.59,3.46-8.93,10.91-5,11.65-21,2-28.11a19.14,19.14,0,0,1-5.48-6.42c-1.64-3.19-.87-5.66,3.21-7.7,11.93-6,12.72-21.3,1.93-29.09-1.92-1.39-4.29-3-5-4.88s-.23-5,1.16-6.22c12.81-11,11.73-28.54-2.26-39.24-10.2-7.8-31.65-9-40,.12-1.33,1.46-5.3,1.84-7.71,1.33-9.73-2.07-17.65.19-23.72,7.79-2.7,3.38-5.92,5.38-10.32,3.72-10.12-3.81-18.64.64-27.59,3.75a51.56,51.56,0,0,1-13,2.7c-7.22.5-14.5.42-21.76.33-3,0-6.29,0-8.84-1.21a29.87,29.87,0,0,0-25.54-.26c-5.47,2.43-9.23,2-13.74-2.1-7.9-7.12-18.35-7.64-28.66-6.62-5.05.51-8.69-.46-11.39-4.3C436,402.77,424.28,402,412,402.47c-4.3.16-8.82.31-12.89-.7-14.29-3.57-27.95.9-33.14,11.53-2.28,4.66-3.48,9.14,1.14,13.71,3.71,3.66-.11,6.6-2.82,8.93-4.13,3.57-6.41,7.61-5,12.77a13.12,13.12,0,0,0,3.35,6c5.82,5.48,6,8.32,0,13.94-6.24,5.85-7.71,13.42-3.66,20.37a19.66,19.66,0,0,0,4.66,5.32c6.69,5.33,6.86,9.31,0,14.91-6.26,5.1-10,11.28-7.39,18.8,1.41,4.08,4.78,7.89,8.13,11.05,4.3,4,5.08,8.91.87,12.88-8.61,8.12-10.45,15.31-6.08,23.79,4.69,9.1,16.3,15.38,26.66,14.34,1.3-.13,2.93-.27,3.76-1,6.57-6,13.41-11.76,14.45-21,.83-7.28-2.68-12.19-9.19-15.77-8.5-4.69-9.09-9.14-2.07-15.12,7.54-6.42,7.26-20.08-.48-26.25-1.73-1.38-3.7-2.73-4.8-4.49-2.21-3.52-2.38-6.82,1.84-9.74,11-7.61,11.7-17.88,2.19-27-4.68-4.51-4.25-9.64,1.14-13.34,7-4.78,7.63-10.47,2.77-16.9-1.63-2.16-3.2-6.75-2.07-7.83,3.24-3.1,7.77-5.16,12.06-7.13.68-.32,3,1.7,4.13,3,8.09,9.41,17,11.84,29.42,8,3.91-1.21,6.89-.65,8.92,3.33,7.6,14.85,21.84,18.29,36.12,8.76,3.52-2.34,5.75-.61,8,1.43,10.22,9.42,17,10.07,30,3.49,1.78-.9,5.22-.28,7.28.71,11.13,5.4,19.08,4.62,27.34-3.59,3.3-3.28,6.32-3.33,10.1-1,10.9,6.8,23.09,5.86,32.13-3.16,4.26-4.25,8.19-4.89,13.75-2.91,8.62,3.07,22.27-1.47,27.53-9,2-2.89,3.82-5.37,8.16-3.88s6.1,4.64,5.67,8.78c-.17,1.56-1.22,3.12-1.09,4.62.26,3,.25,6.45,1.84,8.88,2.42,3.71,2.46,6.23-1,9.29-8.3,7.39-7.33,18.61,1.94,25.38,5.79,4.23,5.5,8.79.12,13.33-9.77,8.25-12.46,19.74-.76,28.81,6.14,4.75,5.95,8.67-.4,13.09-7.65,5.32-9.33,17.89-3.42,25.52,5.47,7.06,4.31,11.22-4.23,14.73-9.14,3.77-17,8.71-22.32,16.92-2.73,4.24-7,5.38-12.49,3.46-7.82-2.73-15.89-2.79-23.4,1.12-4.69,2.43-8.6,1.87-13.54,0s-10.73-2.3-16.12-2.17c-7.07.18-14.13,1.38-21.15,2.4-16.16,2.33-26,12.57-26.06,27.77-.05,16.65.59,33.3.73,50,.06,7.6-.25,15.22-.57,22.82-.13,2.95.06,6.58-5,6.16-4.31-.37-8.06-1.81-8.19-6.59-.3-10.8-.48-21.6-.64-32.4-.18-12.4-.43-24.8-.41-37.2.06-25.64,15.81-41.39,43.63-43.77,12.8-1.09,25.63-3.28,38.36.56a4.22,4.22,0,0,0,2.23-.21,64.54,64.54,0,0,1,30.2-1.71c1.28.23,3.15-.66,4.25-1.55,6.14-5,12.2-10.05,18.09-15.28,1.05-.93,2-3,1.57-4.15-3.92-10.67-1.34-20.56,3.61-30.3.55-1.07.83-2.9.2-3.75-8.82-12-6.36-24.31-1.3-36.6,1.49-3.6,1.57-6.47-.57-9.92-5.39-8.69-5.33-17.85-1.92-27.21.9-2.46.92-5.2,1.55-9.09-10.51,4.55-19.66,6.35-29.33,3.05-.79-.28-2.56,1.15-3.52,2.09C594.27,466.78,575.18,469.3,562,462c-14.5,8.78-21.33,9.65-38.18,5.5,1.48,1.21,3,2.35,4.45,3.62,13.12,11.85,29,8.92,44.61,6.9,1.2-.16,3-1.59,3.14-2.6.67-4.43,3.92-4.31,7.24-3.72,4.5.8,9.28,1.29,13.32,3.09,18.71,8.31,22.59,27.38,8.63,41.55-2.16,2.19-5.13,3.7-7.52,5.38,3.79,4.94,7,8.32,9.23,12.17,9.44,16.07-1.64,36.42-21.35,39.45-3.79.58-7.72.49-11.47,1.2-5.24,1-10.42,2.29-15.55,3.7-7.13,2-14.09,4.59-21.32,6.12-8.62,1.83-17.44,2.8-26.18,4.12-8.16,1.24-16,.7-23.7-2.54-2.1-.88-5.47-.22-7.84.66-20.6,7.64-43,5.54-56.88-14.4a37.15,37.15,0,0,0-2.7-3.13l-13.23,26.62c2.35,4.82,6.19,10.85,8.1,17.35a19.83,19.83,0,0,1-1.21,13.16c-2.36,5-7.93,7.16-14.05,6.34-6.66-.89-10.34-5-12.38-10.62-1.77-4.85-3.13-9.85-5.28-14.55a8.15,8.15,0,0,0-5.12-3.93C346.8,597.82,334.39,569.93,352,546.89Zm129.75-2.68.27-1.53a113.48,113.48,0,0,0-11.37-1.83c-4.85-.32-5.36-3.12-5.42-6.57-.06-4,3.22-3.32,5.73-3.45,3.64-.19,7.45-.69,10.92,0,4,.84,8.36,2.14,11.24,4.57,7.32,6.16,5.66,13.27-3.59,16.34-4.83,1.6-10.11,2.06-15.16,3.11-13.34,2.79-22.32-1.43-25.14-13.83-1.72-7.58-1.26-15.85-.26-23.65,1.43-11.23,10.35-18.8,22.66-19.82,7.81-.65,15.74-.21,23.61-.09a32.79,32.79,0,0,1,20.85,8c4,3.31,7.28,7.27,11.14,10.7,1.49,1.32,3.67,2.78,5.55,2.8,14.63.16,29.27.32,43.88-.23,9.25-.35,16.29-5.12,20.89-12.45,4.28-6.83,2.14-15.15-4.7-20-4.53-3.2-9.71-2.14-13.72,1.68a19.05,19.05,0,0,1-9.42,4.88c-6.79,1.11-13.81.89-20.69,1.63-7.43.8-13.26-.89-18.47-6.24-6.76-6.93-15.08-13.06-25.44-13.48a460.26,460.26,0,0,0-46.68.89c-8.09.5-14.65,4.74-19.53,11.07-7.05,9.14-9.82,19.43-10.88,30.35-1.38,14.24-1,28.33,4.06,42,6.19,16.82,22.64,22.67,39.45,14.15,2.34-1.18,4.35-2.9,6.56-4.29,6-3.79,10.78-3.45,15.58,1.5,3.48,3.58,7.93,4.5,12.58,3.91,11.22-1.43,22.7-2.27,33.46-5.23a181.89,181.89,0,0,1,37.84-6.51,25.49,25.49,0,0,0,10.26-3c6.3-3.41,9.17-10.22,7.46-15.84-2.4-7.91-7.58-13.07-13.79-13.12-16.12-.12-32.23,0-49.26,0,0,6.1.19,10.65,0,15.19-.2,3.79-2,7.92-6.42,7.27-2.88-.42-6.2-4-7.41-6.85-1.39-3.28-.79-7.32-.85-11-.17-11.35-6.86-20.35-18.36-24.63-9.8-3.64-19.75-2.18-29.54-.36a7.68,7.68,0,0,0-6.5,8.37c.33,7.06.71,14.11,1.27,21.16.07,1,1.08,2.69,1.87,2.8C471.33,543.32,476.53,543.71,481.71,544.21Zm-24-82.14c-3.59-1.31-6.14-1.74-8-3-4-2.69-7.14-6.92-11.49-8.43s-9.77.14-14.54-.62c-4.12-.65-8-2.74-11.26-3.95-1.72,5.14-3.46,10-4.9,14.86-.44,1.51-.73,3.54,0,4.8,7.65,13,4,24.79-4.56,36.41,11.5,13.45,10.43,27.65,2.25,41.46l9.16,10c0-1.12,0-2.26,0-3.4-.25-10.07-.45-20.14-.75-30.2-.42-13.73,4-26.14,12.06-37.53C432.94,472.18,442.72,465,457.67,462.07ZM392.45,596.94c.18,6.87,7.33,23.57,10.7,25C405.2,615.61,397.55,597.76,392.45,596.94Z"/><path class="cls-26" d="M694.41,492.82c12.55-15.34,12.79-29.22.72-42.35,12.23-19,4.55-40.42-11.15-52.52C670.6,387.65,648.92,386,633.47,394c-2.67,1.38-5.55,3.65-7.89.08-57.77,41.54-113,24.81-127.08,19.42l-.33,1.26c-1.92-.14-4.43.38-5.65-.53-9.77-7.37-21-10-33.36-9.55-2.33.07-5.47-.9-7-2.43-11.22-11.43-25.27-14.7-41.31-13.12a24.82,24.82,0,0,1-8.34-.51c-29.17-7.43-58.09,12.79-52.06,40.91.2.94.21,2.39-.4,2.93-5.91,5.25-6,12.17-4.52,18.41,1.86,7.67,1.71,14.33-1.28,21.9-4.16,10.51-.32,20.44,7.69,28.65-13.61,13.86-13.59,30.68,0,45.12-17.57,23-5.15,50.92,24.77,56.56a8.12,8.12,0,0,1,5.12,3.94c2.16,4.69,3.51,9.7,5.28,14.55,2,5.56,5.72,9.73,12.38,10.62,6.13.81,11.69-1.36,14.05-6.35a19.74,19.74,0,0,0,1.21-13.15c-1.91-6.51-5.75-12.53-8.1-17.36l13.24-26.62c.83,1,1.88,2,2.69,3.13,13.92,19.94,36.28,22,56.88,14.4,2.38-.88,5.74-1.53,7.84-.65a43,43,0,0,0,23.7,2.54c8.74-1.33,17.57-2.3,26.18-4.12,7.23-1.53,14.19-4.16,21.33-6.12,5.12-1.41,10.3-2.72,15.54-3.71,3.75-.71,7.68-.62,11.47-1.2,19.71-3,30.79-23.37,21.35-39.44-2.26-3.85-5.44-7.24-9.22-12.17,2.38-1.68,5.35-3.2,7.51-5.39,14-14.17,10.08-33.24-8.63-41.55-4-1.8-8.82-2.28-13.31-3.08-3.33-.6-6.57-.72-7.25,3.71-.15,1-1.94,2.45-3.14,2.6-15.63,2-31.49,5-44.61-6.9-1.41-1.27-3-2.41-4.45-3.61,16.85,4.14,23.68,3.28,38.18-5.51,13.21,7.28,32.3,4.77,42.86-5.57,1-.94,2.73-2.36,3.52-2.09,9.67,3.3,18.82,1.51,29.33-3-.63,3.89-.65,6.62-1.55,9.08-3.41,9.36-3.47,18.53,1.92,27.21,2.14,3.45,2.06,6.33.58,9.93-5.07,12.29-7.53,24.61,1.3,36.6.62.84.34,2.67-.21,3.75-5,9.74-7.53,19.63-3.6,30.3.41,1.12-.53,3.21-1.58,4.15-5.89,5.23-11.95,10.29-18.09,15.27-1.1.9-3,1.79-4.25,1.56A64.37,64.37,0,0,0,582,590.53a4.25,4.25,0,0,1-2.24.21c-12.73-3.85-25.56-1.66-38.36-.56-27.82,2.37-43.57,18.13-43.62,43.77,0,12.39.22,24.79.4,37.19.16,10.8.35,21.61.64,32.41.13,4.78,3.88,6.22,8.19,6.58,5,.43,4.83-3.21,5-6.15.32-7.61.63-15.22.57-22.83-.14-16.65-.78-33.3-.72-49.94.05-15.2,9.89-25.44,26.05-27.78,7-1,14.09-2.22,21.16-2.39,5.39-.13,11.24.28,16.11,2.17s8.85,2.47,13.54,0c7.52-3.9,15.58-3.85,23.4-1.11,5.51,1.92,9.77.78,12.49-3.46,5.28-8.21,13.18-13.16,22.32-16.92,8.55-3.52,9.7-7.67,4.23-14.73-5.91-7.63-4.23-20.2,3.42-25.53,6.36-4.42,6.54-8.33.41-13.09-11.7-9.06-9-20.55.76-28.81,5.38-4.54,5.66-9.09-.13-13.32-9.27-6.78-10.23-18-1.94-25.39,3.42-3.05,3.39-5.58,1-9.29-1.59-2.43-1.57-5.86-1.84-8.87-.13-1.5.92-3.06,1.09-4.63.44-4.13-1.19-7.23-5.67-8.77s-6.14,1-8.16,3.88c-5.26,7.52-18.9,12.06-27.52,9-5.56-2-9.5-1.33-13.75,2.91-9,9-21.24,10-32.14,3.17-3.78-2.36-6.8-2.3-10.1,1-8.25,8.2-16.21,9-27.34,3.59-2.06-1-5.49-1.62-7.28-.72-13,6.59-19.79,5.93-30-3.48-2.22-2.05-4.44-3.78-8-1.43-14.28,9.52-28.53,6.09-36.12-8.77-2-4-5-4.53-8.93-3.33-12.45,3.85-21.32,1.42-29.42-8-1.11-1.29-3.45-3.3-4.13-3-4.29,2-8.82,4-12.06,7.14-1.12,1.07.44,5.67,2.08,7.83,4.85,6.43,4.19,12.11-2.78,16.89-5.38,3.7-5.82,8.84-1.13,13.34,9.51,9.14,8.79,19.41-2.2,27-4.22,2.92-4.05,6.21-1.84,9.73,1.11,1.77,3.07,3.12,4.8,4.5,7.74,6.17,8,19.83.48,26.24-7,6-6.43,10.44,2.08,15.12,6.5,3.58,10,8.5,9.19,15.78-1.05,9.26-7.89,15.06-14.46,21-.82.74-2.46.89-3.76,1-10.36,1-22-5.25-26.66-14.35-4.37-8.47-2.53-15.66,6.08-23.79,4.21-4,3.43-8.84-.86-12.88-3.36-3.15-6.72-7-8.14-11-2.6-7.52,1.13-13.7,7.39-18.79,6.88-5.6,6.7-9.59,0-14.91a19.75,19.75,0,0,1-4.65-5.32c-4.05-6.95-2.58-14.52,3.66-20.37,6-5.62,5.86-8.47,0-13.94a13.2,13.2,0,0,1-3.35-6c-1.39-5.15.88-9.2,5-12.76,2.7-2.33,6.52-5.28,2.81-8.94-4.62-4.56-3.41-9-1.13-13.71,5.18-10.62,18.84-15.1,33.13-11.53,4.07,1,8.6.86,12.89.71,12.32-.45,24,.3,31.63,11.1,2.71,3.83,6.35,4.8,11.4,4.3,10.3-1,20.75-.5,28.66,6.62,4.5,4.06,8.26,4.53,13.73,2.1a29.85,29.85,0,0,1,25.55.26c2.54,1.16,5.86,1.17,8.84,1.21,7.25.08,14.53.17,21.75-.33a51.06,51.06,0,0,0,13-2.71c9-3.1,17.48-7.56,27.59-3.75,4.4,1.66,7.63-.34,10.32-3.72,6.07-7.6,14-9.86,23.73-7.79,2.4.51,6.37.13,7.7-1.32,8.34-9.1,29.78-7.93,40-.13,14,10.71,15.06,28.28,2.25,39.24-1.39,1.19-1.82,4.42-1.16,6.23s3.07,3.49,5,4.88c10.78,7.79,10,23.12-1.94,29.09-4.08,2-4.85,4.5-3.21,7.69a19.06,19.06,0,0,0,5.49,6.42c9.65,7.15,8.91,23.11-2,28.12-5.09,2.34-5.29,5.27-3.45,8.93a23.1,23.1,0,0,0,5.51,6.59c9,8,8.38,23.26-2,29.19-4.23,2.42-5.33,5.06-4.78,9.07.38,2.8.72,5.62,1,8.44.85,8.68-4,14.4-11.62,18.61q-5.14,2.87-10.47,5.47c-6.62,3.21-13,7.06-21.1,3.28-7.07-3.3-8.39-2.69-12.21,3.76-6.74,11.39-22.58,13.44-32.61,4.22-5.26-4.83-7.13-4.78-12.86.08-6.24,5.31-13.56,6.43-21.46,4s-10-2.27-14.09,4.25a26.8,26.8,0,0,0-3.94,13c-.4,15.05-.18,30.11.13,45.16.12,5.72,1.12,11.43,1.71,17.08,10.9-.62,11.83-1.47,11.81-9.94,0-14.53-.11-29.05-.16-43.58,0-4.21,0-8.42,0-12.9,1.61.14,2.54.15,3.44.32,7.94,1.54,16.07,1.75,23-2.07,4.53-2.48,7.52-1.93,11.8-.08,14.73,6.36,30.08,2.93,41.15-8.38,1-1.06,3.64-1.23,5.48-1.16,7.78.28,15.37,0,22.35-3.77a98.53,98.53,0,0,1,11.13-5.41c14.35-5.51,23.76-20.56,22-34.74a9.45,9.45,0,0,1,2.57-6.77c8.21-8.64,12.77-18.31,9.65-29.76-1.59-5.83-4.77-11.29-7.41-17.33C704.07,525.87,708.38,509.22,694.41,492.82ZM505.08,474.49c10.35.42,18.67,6.54,25.43,13.48,5.22,5.34,11,7,18.48,6.24,6.87-.75,13.89-.53,20.68-1.63a19.09,19.09,0,0,0,9.42-4.88c4-3.82,9.19-4.89,13.73-1.68,6.83,4.82,9,13.14,4.69,20-4.6,7.34-11.64,12.1-20.89,12.45-14.6.56-29.25.39-43.87.24-1.89,0-4.07-1.48-5.56-2.8-3.86-3.43-7.18-7.39-11.14-10.7a32.68,32.68,0,0,0-20.85-8c-7.87-.13-15.8-.56-23.61.08-12.3,1-21.23,8.59-22.66,19.83-1,7.8-1.46,16.06.26,23.65,2.82,12.39,11.8,16.62,25.14,13.83,5.06-1.06,10.33-1.51,15.16-3.12,9.25-3.07,10.91-10.17,3.59-16.34-2.88-2.43-7.28-3.72-11.24-4.56-3.46-.74-7.28-.24-10.92,0-2.51.13-5.79-.51-5.72,3.46.05,3.45.56,6.25,5.41,6.57A113,113,0,0,1,482,542.33c-.08.51-.17,1-.26,1.53-5.19-.5-10.38-.88-15.53-1.61-.79-.12-1.79-1.8-1.87-2.81-.55-7-.94-14.1-1.27-21.15a7.69,7.69,0,0,1,6.51-8.38c9.79-1.82,19.73-3.28,29.53.37,11.5,4.28,18.19,13.27,18.36,24.62.06,3.71-.54,7.74.85,11,1.21,2.85,4.53,6.43,7.41,6.86,4.4.64,6.22-3.48,6.42-7.27.24-4.54.06-9.1.06-15.19,17,0,33.14-.09,49.25,0,6.21,0,11.39,5.21,13.79,13.11,1.72,5.63-1.16,12.43-7.46,15.85a25.47,25.47,0,0,1-10.26,3,181.89,181.89,0,0,0-37.84,6.51c-10.76,3-22.24,3.81-33.46,5.24-4.65.59-9.09-.33-12.58-3.92-4.8-4.94-9.56-5.29-15.57-1.5-2.22,1.4-4.23,3.12-6.56,4.3-16.81,8.51-33.27,2.67-39.46-14.15-5-13.66-5.44-27.75-4.06-42,1.06-10.93,3.83-21.21,10.88-30.35,4.88-6.33,11.44-10.57,19.53-11.07A457.51,457.51,0,0,1,505.08,474.49ZM402.9,501.78c8.57-11.62,12.21-23.37,4.56-36.41-.73-1.25-.44-3.28,0-4.8,1.45-4.89,3.18-9.72,4.9-14.86,3.29,1.21,7.15,3.3,11.27,4,4.76.76,10.22-.87,14.53.62s7.52,5.74,11.49,8.42c1.88,1.27,4.43,1.71,8,3-14.95,2.89-24.73,10.12-32.05,20.44-8.07,11.39-12.47,23.8-12.06,37.52.3,10.07.51,20.14.75,30.2,0,1.15,0,2.29,0,3.4l-9.16-10C413.33,529.43,414.41,515.23,402.9,501.78Zm.25,119.78c-3.36-1.39-10.52-18.09-10.69-25C397.56,597.41,405.2,615.27,403.15,621.56Z"/><rect class="cls-27" x="457.54" y="387.09" width="6.42" height="12.76" transform="translate(58.34 -59.09) rotate(7.79)"/></svg>